%TF.GenerationSoftware,KiCad,Pcbnew,(5.1.9)-1*%
%TF.CreationDate,2021-07-10T22:32:32+01:00*%
%TF.ProjectId,DigiMesh Dongle,44696769-4d65-4736-9820-446f6e676c65,rev?*%
%TF.SameCoordinates,Original*%
%TF.FileFunction,Soldermask,Top*%
%TF.FilePolarity,Negative*%
%FSLAX46Y46*%
G04 Gerber Fmt 4.6, Leading zero omitted, Abs format (unit mm)*
G04 Created by KiCad (PCBNEW (5.1.9)-1) date 2021-07-10 22:32:32*
%MOMM*%
%LPD*%
G01*
G04 APERTURE LIST*
%ADD10R,0.650000X1.150000*%
%ADD11R,0.320000X1.000000*%
%ADD12R,1.447800X0.838200*%
%ADD13R,0.838200X1.447800*%
G04 APERTURE END LIST*
D10*
%TO.C,J1*%
X136170000Y-68160000D03*
D11*
X130000000Y-69000000D03*
X130500000Y-69000000D03*
X131000000Y-69000000D03*
X131500000Y-69000000D03*
X132000000Y-69000000D03*
X132500000Y-69000000D03*
X133000000Y-69000000D03*
X133500000Y-69000000D03*
X134000000Y-69000000D03*
X134500000Y-69000000D03*
X135000000Y-69000000D03*
X135500000Y-69000000D03*
%TD*%
D12*
%TO.C,U2*%
X139315299Y-46643400D03*
X139315299Y-47908320D03*
X139315299Y-49158000D03*
X139315299Y-50407680D03*
X139315299Y-51657360D03*
X139315299Y-52907040D03*
X139315299Y-54156719D03*
X139315299Y-55406400D03*
X139315299Y-56656080D03*
X139315299Y-57905760D03*
X139315299Y-59155440D03*
X139315299Y-60405120D03*
X139315299Y-61654800D03*
X139315299Y-62904480D03*
D13*
X137143599Y-64436100D03*
X135878679Y-64436100D03*
X134628999Y-64436100D03*
X133379318Y-64436100D03*
X132129640Y-64436100D03*
X130879959Y-64436100D03*
X129630279Y-64436100D03*
X128380599Y-64436100D03*
D12*
X126208899Y-62904480D03*
X126208899Y-61654800D03*
X126208899Y-60405120D03*
X126208899Y-59155440D03*
X126208899Y-57905760D03*
X126208899Y-56656080D03*
X126208899Y-55406400D03*
X126208899Y-54156719D03*
X126208899Y-52907040D03*
X126208899Y-51657360D03*
X126208899Y-50407680D03*
X126208899Y-49158000D03*
%TD*%
%TO.C,R6*%
G36*
G01*
X136300000Y-65949999D02*
X136300000Y-66850001D01*
G75*
G02*
X136050001Y-67100000I-249999J0D01*
G01*
X135349999Y-67100000D01*
G75*
G02*
X135100000Y-66850001I0J249999D01*
G01*
X135100000Y-65949999D01*
G75*
G02*
X135349999Y-65700000I249999J0D01*
G01*
X136050001Y-65700000D01*
G75*
G02*
X136300000Y-65949999I0J-249999D01*
G01*
G37*
G36*
G01*
X134300000Y-65949999D02*
X134300000Y-66850001D01*
G75*
G02*
X134050001Y-67100000I-249999J0D01*
G01*
X133349999Y-67100000D01*
G75*
G02*
X133100000Y-66850001I0J249999D01*
G01*
X133100000Y-65949999D01*
G75*
G02*
X133349999Y-65700000I249999J0D01*
G01*
X134050001Y-65700000D01*
G75*
G02*
X134300000Y-65949999I0J-249999D01*
G01*
G37*
%TD*%
%TO.C,C10*%
G36*
G01*
X129175000Y-66875000D02*
X129175000Y-65925000D01*
G75*
G02*
X129425000Y-65675000I250000J0D01*
G01*
X130100000Y-65675000D01*
G75*
G02*
X130350000Y-65925000I0J-250000D01*
G01*
X130350000Y-66875000D01*
G75*
G02*
X130100000Y-67125000I-250000J0D01*
G01*
X129425000Y-67125000D01*
G75*
G02*
X129175000Y-66875000I0J250000D01*
G01*
G37*
G36*
G01*
X131250000Y-66875000D02*
X131250000Y-65925000D01*
G75*
G02*
X131500000Y-65675000I250000J0D01*
G01*
X132175000Y-65675000D01*
G75*
G02*
X132425000Y-65925000I0J-250000D01*
G01*
X132425000Y-66875000D01*
G75*
G02*
X132175000Y-67125000I-250000J0D01*
G01*
X131500000Y-67125000D01*
G75*
G02*
X131250000Y-66875000I0J250000D01*
G01*
G37*
%TD*%
M02*
