%TF.GenerationSoftware,KiCad,Pcbnew,(5.1.9)-1*%
%TF.CreationDate,2021-07-10T22:32:32+01:00*%
%TF.ProjectId,DigiMesh Dongle,44696769-4d65-4736-9820-446f6e676c65,rev?*%
%TF.SameCoordinates,Original*%
%TF.FileFunction,Copper,L2,Bot*%
%TF.FilePolarity,Positive*%
%FSLAX46Y46*%
G04 Gerber Fmt 4.6, Leading zero omitted, Abs format (unit mm)*
G04 Created by KiCad (PCBNEW (5.1.9)-1) date 2021-07-10 22:32:32*
%MOMM*%
%LPD*%
G01*
G04 APERTURE LIST*
%TA.AperFunction,SMDPad,CuDef*%
%ADD10R,0.320000X1.000000*%
%TD*%
%TA.AperFunction,SMDPad,CuDef*%
%ADD11R,0.650000X1.150000*%
%TD*%
%TA.AperFunction,SMDPad,CuDef*%
%ADD12C,0.100000*%
%TD*%
%TA.AperFunction,SMDPad,CuDef*%
%ADD13R,1.400000X1.200000*%
%TD*%
%TA.AperFunction,SMDPad,CuDef*%
%ADD14R,1.400000X1.000000*%
%TD*%
%TA.AperFunction,ViaPad*%
%ADD15C,0.600000*%
%TD*%
%TA.AperFunction,ViaPad*%
%ADD16C,0.400000*%
%TD*%
%TA.AperFunction,Conductor*%
%ADD17C,0.250000*%
%TD*%
%TA.AperFunction,Conductor*%
%ADD18C,0.500000*%
%TD*%
%TA.AperFunction,Conductor*%
%ADD19C,0.200000*%
%TD*%
%TA.AperFunction,Conductor*%
%ADD20C,0.100000*%
%TD*%
G04 APERTURE END LIST*
D10*
%TO.P,J1,B12*%
%TO.N,GND*%
X135500000Y-69000000D03*
%TO.P,J1,B11*%
%TO.N,N/C*%
X135000000Y-69000000D03*
%TO.P,J1,B10*%
X134500000Y-69000000D03*
%TO.P,J1,B9*%
%TO.N,+5V*%
X134000000Y-69000000D03*
%TO.P,J1,B8*%
%TO.N,N/C*%
X133500000Y-69000000D03*
%TO.P,J1,B5*%
X132000000Y-69000000D03*
%TO.P,J1,B4*%
%TO.N,+5V*%
X131500000Y-69000000D03*
%TO.P,J1,B3*%
%TO.N,N/C*%
X131000000Y-69000000D03*
%TO.P,J1,B2*%
X130500000Y-69000000D03*
%TO.P,J1,B1*%
%TO.N,GND*%
X130000000Y-69000000D03*
D11*
%TO.P,J1,S1*%
X129330000Y-68160000D03*
%TD*%
%TO.P,U1,1*%
%TO.N,N/C*%
%TA.AperFunction,SMDPad,CuDef*%
G36*
G01*
X134016377Y-61589779D02*
X133927988Y-61501390D01*
G75*
G02*
X133927988Y-61413002I44194J44194D01*
G01*
X134422963Y-60918027D01*
G75*
G02*
X134511351Y-60918027I44194J-44194D01*
G01*
X134599740Y-61006416D01*
G75*
G02*
X134599740Y-61094804I-44194J-44194D01*
G01*
X134104765Y-61589779D01*
G75*
G02*
X134016377Y-61589779I-44194J44194D01*
G01*
G37*
%TD.AperFunction*%
%TO.P,U1,2*%
%TO.N,GND*%
%TA.AperFunction,SMDPad,CuDef*%
G36*
G01*
X133662824Y-61236225D02*
X133574435Y-61147836D01*
G75*
G02*
X133574435Y-61059448I44194J44194D01*
G01*
X134069410Y-60564473D01*
G75*
G02*
X134157798Y-60564473I44194J-44194D01*
G01*
X134246187Y-60652862D01*
G75*
G02*
X134246187Y-60741250I-44194J-44194D01*
G01*
X133751212Y-61236225D01*
G75*
G02*
X133662824Y-61236225I-44194J44194D01*
G01*
G37*
%TD.AperFunction*%
%TO.P,U1,3*%
%TO.N,D+*%
%TA.AperFunction,SMDPad,CuDef*%
G36*
G01*
X133309270Y-60882672D02*
X133220881Y-60794283D01*
G75*
G02*
X133220881Y-60705895I44194J44194D01*
G01*
X133715856Y-60210920D01*
G75*
G02*
X133804244Y-60210920I44194J-44194D01*
G01*
X133892633Y-60299309D01*
G75*
G02*
X133892633Y-60387697I-44194J-44194D01*
G01*
X133397658Y-60882672D01*
G75*
G02*
X133309270Y-60882672I-44194J44194D01*
G01*
G37*
%TD.AperFunction*%
%TO.P,U1,4*%
%TO.N,D-*%
%TA.AperFunction,SMDPad,CuDef*%
G36*
G01*
X132955717Y-60529119D02*
X132867328Y-60440730D01*
G75*
G02*
X132867328Y-60352342I44194J44194D01*
G01*
X133362303Y-59857367D01*
G75*
G02*
X133450691Y-59857367I44194J-44194D01*
G01*
X133539080Y-59945756D01*
G75*
G02*
X133539080Y-60034144I-44194J-44194D01*
G01*
X133044105Y-60529119D01*
G75*
G02*
X132955717Y-60529119I-44194J44194D01*
G01*
G37*
%TD.AperFunction*%
%TO.P,U1,5*%
%TO.N,+3V3*%
%TA.AperFunction,SMDPad,CuDef*%
G36*
G01*
X132602164Y-60175565D02*
X132513775Y-60087176D01*
G75*
G02*
X132513775Y-59998788I44194J44194D01*
G01*
X133008750Y-59503813D01*
G75*
G02*
X133097138Y-59503813I44194J-44194D01*
G01*
X133185527Y-59592202D01*
G75*
G02*
X133185527Y-59680590I-44194J-44194D01*
G01*
X132690552Y-60175565D01*
G75*
G02*
X132602164Y-60175565I-44194J44194D01*
G01*
G37*
%TD.AperFunction*%
%TO.P,U1,6*%
%TA.AperFunction,SMDPad,CuDef*%
G36*
G01*
X132248610Y-59822012D02*
X132160221Y-59733623D01*
G75*
G02*
X132160221Y-59645235I44194J44194D01*
G01*
X132655196Y-59150260D01*
G75*
G02*
X132743584Y-59150260I44194J-44194D01*
G01*
X132831973Y-59238649D01*
G75*
G02*
X132831973Y-59327037I-44194J-44194D01*
G01*
X132336998Y-59822012D01*
G75*
G02*
X132248610Y-59822012I-44194J44194D01*
G01*
G37*
%TD.AperFunction*%
%TO.P,U1,7*%
%TO.N,+5V*%
%TA.AperFunction,SMDPad,CuDef*%
G36*
G01*
X132655196Y-58849740D02*
X132160221Y-58354765D01*
G75*
G02*
X132160221Y-58266377I44194J44194D01*
G01*
X132248610Y-58177988D01*
G75*
G02*
X132336998Y-58177988I44194J-44194D01*
G01*
X132831973Y-58672963D01*
G75*
G02*
X132831973Y-58761351I-44194J-44194D01*
G01*
X132743584Y-58849740D01*
G75*
G02*
X132655196Y-58849740I-44194J44194D01*
G01*
G37*
%TD.AperFunction*%
%TO.P,U1,8*%
%TO.N,Net-(R3-Pad2)*%
%TA.AperFunction,SMDPad,CuDef*%
G36*
G01*
X133008750Y-58496187D02*
X132513775Y-58001212D01*
G75*
G02*
X132513775Y-57912824I44194J44194D01*
G01*
X132602164Y-57824435D01*
G75*
G02*
X132690552Y-57824435I44194J-44194D01*
G01*
X133185527Y-58319410D01*
G75*
G02*
X133185527Y-58407798I-44194J-44194D01*
G01*
X133097138Y-58496187D01*
G75*
G02*
X133008750Y-58496187I-44194J44194D01*
G01*
G37*
%TD.AperFunction*%
%TO.P,U1,9*%
%TO.N,Net-(R2-Pad2)*%
%TA.AperFunction,SMDPad,CuDef*%
G36*
G01*
X133362303Y-58142633D02*
X132867328Y-57647658D01*
G75*
G02*
X132867328Y-57559270I44194J44194D01*
G01*
X132955717Y-57470881D01*
G75*
G02*
X133044105Y-57470881I44194J-44194D01*
G01*
X133539080Y-57965856D01*
G75*
G02*
X133539080Y-58054244I-44194J-44194D01*
G01*
X133450691Y-58142633D01*
G75*
G02*
X133362303Y-58142633I-44194J44194D01*
G01*
G37*
%TD.AperFunction*%
%TO.P,U1,10*%
%TO.N,N/C*%
%TA.AperFunction,SMDPad,CuDef*%
G36*
G01*
X133715856Y-57789080D02*
X133220881Y-57294105D01*
G75*
G02*
X133220881Y-57205717I44194J44194D01*
G01*
X133309270Y-57117328D01*
G75*
G02*
X133397658Y-57117328I44194J-44194D01*
G01*
X133892633Y-57612303D01*
G75*
G02*
X133892633Y-57700691I-44194J-44194D01*
G01*
X133804244Y-57789080D01*
G75*
G02*
X133715856Y-57789080I-44194J44194D01*
G01*
G37*
%TD.AperFunction*%
%TO.P,U1,11*%
%TA.AperFunction,SMDPad,CuDef*%
G36*
G01*
X134069410Y-57435527D02*
X133574435Y-56940552D01*
G75*
G02*
X133574435Y-56852164I44194J44194D01*
G01*
X133662824Y-56763775D01*
G75*
G02*
X133751212Y-56763775I44194J-44194D01*
G01*
X134246187Y-57258750D01*
G75*
G02*
X134246187Y-57347138I-44194J-44194D01*
G01*
X134157798Y-57435527D01*
G75*
G02*
X134069410Y-57435527I-44194J44194D01*
G01*
G37*
%TD.AperFunction*%
%TO.P,U1,12*%
%TA.AperFunction,SMDPad,CuDef*%
G36*
G01*
X134422963Y-57081973D02*
X133927988Y-56586998D01*
G75*
G02*
X133927988Y-56498610I44194J44194D01*
G01*
X134016377Y-56410221D01*
G75*
G02*
X134104765Y-56410221I44194J-44194D01*
G01*
X134599740Y-56905196D01*
G75*
G02*
X134599740Y-56993584I-44194J-44194D01*
G01*
X134511351Y-57081973D01*
G75*
G02*
X134422963Y-57081973I-44194J44194D01*
G01*
G37*
%TD.AperFunction*%
%TO.P,U1,13*%
%TA.AperFunction,SMDPad,CuDef*%
G36*
G01*
X134988649Y-57081973D02*
X134900260Y-56993584D01*
G75*
G02*
X134900260Y-56905196I44194J44194D01*
G01*
X135395235Y-56410221D01*
G75*
G02*
X135483623Y-56410221I44194J-44194D01*
G01*
X135572012Y-56498610D01*
G75*
G02*
X135572012Y-56586998I-44194J-44194D01*
G01*
X135077037Y-57081973D01*
G75*
G02*
X134988649Y-57081973I-44194J44194D01*
G01*
G37*
%TD.AperFunction*%
%TO.P,U1,14*%
%TA.AperFunction,SMDPad,CuDef*%
G36*
G01*
X135342202Y-57435527D02*
X135253813Y-57347138D01*
G75*
G02*
X135253813Y-57258750I44194J44194D01*
G01*
X135748788Y-56763775D01*
G75*
G02*
X135837176Y-56763775I44194J-44194D01*
G01*
X135925565Y-56852164D01*
G75*
G02*
X135925565Y-56940552I-44194J-44194D01*
G01*
X135430590Y-57435527D01*
G75*
G02*
X135342202Y-57435527I-44194J44194D01*
G01*
G37*
%TD.AperFunction*%
%TO.P,U1,15*%
%TA.AperFunction,SMDPad,CuDef*%
G36*
G01*
X135695756Y-57789080D02*
X135607367Y-57700691D01*
G75*
G02*
X135607367Y-57612303I44194J44194D01*
G01*
X136102342Y-57117328D01*
G75*
G02*
X136190730Y-57117328I44194J-44194D01*
G01*
X136279119Y-57205717D01*
G75*
G02*
X136279119Y-57294105I-44194J-44194D01*
G01*
X135784144Y-57789080D01*
G75*
G02*
X135695756Y-57789080I-44194J44194D01*
G01*
G37*
%TD.AperFunction*%
%TO.P,U1,16*%
%TA.AperFunction,SMDPad,CuDef*%
G36*
G01*
X136049309Y-58142633D02*
X135960920Y-58054244D01*
G75*
G02*
X135960920Y-57965856I44194J44194D01*
G01*
X136455895Y-57470881D01*
G75*
G02*
X136544283Y-57470881I44194J-44194D01*
G01*
X136632672Y-57559270D01*
G75*
G02*
X136632672Y-57647658I-44194J-44194D01*
G01*
X136137697Y-58142633D01*
G75*
G02*
X136049309Y-58142633I-44194J44194D01*
G01*
G37*
%TD.AperFunction*%
%TO.P,U1,17*%
%TA.AperFunction,SMDPad,CuDef*%
G36*
G01*
X136402862Y-58496187D02*
X136314473Y-58407798D01*
G75*
G02*
X136314473Y-58319410I44194J44194D01*
G01*
X136809448Y-57824435D01*
G75*
G02*
X136897836Y-57824435I44194J-44194D01*
G01*
X136986225Y-57912824D01*
G75*
G02*
X136986225Y-58001212I-44194J-44194D01*
G01*
X136491250Y-58496187D01*
G75*
G02*
X136402862Y-58496187I-44194J44194D01*
G01*
G37*
%TD.AperFunction*%
%TO.P,U1,18*%
%TO.N,XB_RTS*%
%TA.AperFunction,SMDPad,CuDef*%
G36*
G01*
X136756416Y-58849740D02*
X136668027Y-58761351D01*
G75*
G02*
X136668027Y-58672963I44194J44194D01*
G01*
X137163002Y-58177988D01*
G75*
G02*
X137251390Y-58177988I44194J-44194D01*
G01*
X137339779Y-58266377D01*
G75*
G02*
X137339779Y-58354765I-44194J-44194D01*
G01*
X136844804Y-58849740D01*
G75*
G02*
X136756416Y-58849740I-44194J44194D01*
G01*
G37*
%TD.AperFunction*%
%TO.P,U1,19*%
%TO.N,XB_CTS*%
%TA.AperFunction,SMDPad,CuDef*%
G36*
G01*
X137163002Y-59822012D02*
X136668027Y-59327037D01*
G75*
G02*
X136668027Y-59238649I44194J44194D01*
G01*
X136756416Y-59150260D01*
G75*
G02*
X136844804Y-59150260I44194J-44194D01*
G01*
X137339779Y-59645235D01*
G75*
G02*
X137339779Y-59733623I-44194J-44194D01*
G01*
X137251390Y-59822012D01*
G75*
G02*
X137163002Y-59822012I-44194J44194D01*
G01*
G37*
%TD.AperFunction*%
%TO.P,U1,20*%
%TO.N,XB_TX*%
%TA.AperFunction,SMDPad,CuDef*%
G36*
G01*
X136809448Y-60175565D02*
X136314473Y-59680590D01*
G75*
G02*
X136314473Y-59592202I44194J44194D01*
G01*
X136402862Y-59503813D01*
G75*
G02*
X136491250Y-59503813I44194J-44194D01*
G01*
X136986225Y-59998788D01*
G75*
G02*
X136986225Y-60087176I-44194J-44194D01*
G01*
X136897836Y-60175565D01*
G75*
G02*
X136809448Y-60175565I-44194J44194D01*
G01*
G37*
%TD.AperFunction*%
%TO.P,U1,21*%
%TO.N,XB_RX*%
%TA.AperFunction,SMDPad,CuDef*%
G36*
G01*
X136455895Y-60529119D02*
X135960920Y-60034144D01*
G75*
G02*
X135960920Y-59945756I44194J44194D01*
G01*
X136049309Y-59857367D01*
G75*
G02*
X136137697Y-59857367I44194J-44194D01*
G01*
X136632672Y-60352342D01*
G75*
G02*
X136632672Y-60440730I-44194J-44194D01*
G01*
X136544283Y-60529119D01*
G75*
G02*
X136455895Y-60529119I-44194J44194D01*
G01*
G37*
%TD.AperFunction*%
%TO.P,U1,22*%
%TO.N,N/C*%
%TA.AperFunction,SMDPad,CuDef*%
G36*
G01*
X136102342Y-60882672D02*
X135607367Y-60387697D01*
G75*
G02*
X135607367Y-60299309I44194J44194D01*
G01*
X135695756Y-60210920D01*
G75*
G02*
X135784144Y-60210920I44194J-44194D01*
G01*
X136279119Y-60705895D01*
G75*
G02*
X136279119Y-60794283I-44194J-44194D01*
G01*
X136190730Y-60882672D01*
G75*
G02*
X136102342Y-60882672I-44194J44194D01*
G01*
G37*
%TD.AperFunction*%
%TO.P,U1,23*%
%TA.AperFunction,SMDPad,CuDef*%
G36*
G01*
X135748788Y-61236225D02*
X135253813Y-60741250D01*
G75*
G02*
X135253813Y-60652862I44194J44194D01*
G01*
X135342202Y-60564473D01*
G75*
G02*
X135430590Y-60564473I44194J-44194D01*
G01*
X135925565Y-61059448D01*
G75*
G02*
X135925565Y-61147836I-44194J-44194D01*
G01*
X135837176Y-61236225D01*
G75*
G02*
X135748788Y-61236225I-44194J44194D01*
G01*
G37*
%TD.AperFunction*%
%TO.P,U1,24*%
%TA.AperFunction,SMDPad,CuDef*%
G36*
G01*
X135395235Y-61589779D02*
X134900260Y-61094804D01*
G75*
G02*
X134900260Y-61006416I44194J44194D01*
G01*
X134988649Y-60918027D01*
G75*
G02*
X135077037Y-60918027I44194J-44194D01*
G01*
X135572012Y-61413002D01*
G75*
G02*
X135572012Y-61501390I-44194J-44194D01*
G01*
X135483623Y-61589779D01*
G75*
G02*
X135395235Y-61589779I-44194J44194D01*
G01*
G37*
%TD.AperFunction*%
%TA.AperFunction,SMDPad,CuDef*%
D12*
%TO.P,U1,25*%
%TO.N,GND*%
G36*
X134750000Y-60838478D02*
G01*
X132911522Y-59000000D01*
X134750000Y-57161522D01*
X136588478Y-59000000D01*
X134750000Y-60838478D01*
G37*
%TD.AperFunction*%
%TD*%
%TO.P,R5,1*%
%TO.N,Net-(R5-Pad1)*%
%TA.AperFunction,SMDPad,CuDef*%
G36*
G01*
X134299999Y-47400000D02*
X135200001Y-47400000D01*
G75*
G02*
X135450000Y-47649999I0J-249999D01*
G01*
X135450000Y-48350001D01*
G75*
G02*
X135200001Y-48600000I-249999J0D01*
G01*
X134299999Y-48600000D01*
G75*
G02*
X134050000Y-48350001I0J249999D01*
G01*
X134050000Y-47649999D01*
G75*
G02*
X134299999Y-47400000I249999J0D01*
G01*
G37*
%TD.AperFunction*%
%TO.P,R5,2*%
%TO.N,Net-(D2-Pad2)*%
%TA.AperFunction,SMDPad,CuDef*%
G36*
G01*
X134299999Y-49400000D02*
X135200001Y-49400000D01*
G75*
G02*
X135450000Y-49649999I0J-249999D01*
G01*
X135450000Y-50350001D01*
G75*
G02*
X135200001Y-50600000I-249999J0D01*
G01*
X134299999Y-50600000D01*
G75*
G02*
X134050000Y-50350001I0J249999D01*
G01*
X134050000Y-49649999D01*
G75*
G02*
X134299999Y-49400000I249999J0D01*
G01*
G37*
%TD.AperFunction*%
%TD*%
%TO.P,R4,1*%
%TO.N,Net-(R3-Pad2)*%
%TA.AperFunction,SMDPad,CuDef*%
G36*
G01*
X133200001Y-54350000D02*
X132299999Y-54350000D01*
G75*
G02*
X132050000Y-54100001I0J249999D01*
G01*
X132050000Y-53399999D01*
G75*
G02*
X132299999Y-53150000I249999J0D01*
G01*
X133200001Y-53150000D01*
G75*
G02*
X133450000Y-53399999I0J-249999D01*
G01*
X133450000Y-54100001D01*
G75*
G02*
X133200001Y-54350000I-249999J0D01*
G01*
G37*
%TD.AperFunction*%
%TO.P,R4,2*%
%TO.N,GND*%
%TA.AperFunction,SMDPad,CuDef*%
G36*
G01*
X133200001Y-52350000D02*
X132299999Y-52350000D01*
G75*
G02*
X132050000Y-52100001I0J249999D01*
G01*
X132050000Y-51399999D01*
G75*
G02*
X132299999Y-51150000I249999J0D01*
G01*
X133200001Y-51150000D01*
G75*
G02*
X133450000Y-51399999I0J-249999D01*
G01*
X133450000Y-52100001D01*
G75*
G02*
X133200001Y-52350000I-249999J0D01*
G01*
G37*
%TD.AperFunction*%
%TD*%
%TO.P,R3,1*%
%TO.N,+5V*%
%TA.AperFunction,SMDPad,CuDef*%
G36*
G01*
X134299999Y-51150000D02*
X135200001Y-51150000D01*
G75*
G02*
X135450000Y-51399999I0J-249999D01*
G01*
X135450000Y-52100001D01*
G75*
G02*
X135200001Y-52350000I-249999J0D01*
G01*
X134299999Y-52350000D01*
G75*
G02*
X134050000Y-52100001I0J249999D01*
G01*
X134050000Y-51399999D01*
G75*
G02*
X134299999Y-51150000I249999J0D01*
G01*
G37*
%TD.AperFunction*%
%TO.P,R3,2*%
%TO.N,Net-(R3-Pad2)*%
%TA.AperFunction,SMDPad,CuDef*%
G36*
G01*
X134299999Y-53150000D02*
X135200001Y-53150000D01*
G75*
G02*
X135450000Y-53399999I0J-249999D01*
G01*
X135450000Y-54100001D01*
G75*
G02*
X135200001Y-54350000I-249999J0D01*
G01*
X134299999Y-54350000D01*
G75*
G02*
X134050000Y-54100001I0J249999D01*
G01*
X134050000Y-53399999D01*
G75*
G02*
X134299999Y-53150000I249999J0D01*
G01*
G37*
%TD.AperFunction*%
%TD*%
%TO.P,R2,1*%
%TO.N,+3V3*%
%TA.AperFunction,SMDPad,CuDef*%
G36*
G01*
X136299999Y-51150000D02*
X137200001Y-51150000D01*
G75*
G02*
X137450000Y-51399999I0J-249999D01*
G01*
X137450000Y-52100001D01*
G75*
G02*
X137200001Y-52350000I-249999J0D01*
G01*
X136299999Y-52350000D01*
G75*
G02*
X136050000Y-52100001I0J249999D01*
G01*
X136050000Y-51399999D01*
G75*
G02*
X136299999Y-51150000I249999J0D01*
G01*
G37*
%TD.AperFunction*%
%TO.P,R2,2*%
%TO.N,Net-(R2-Pad2)*%
%TA.AperFunction,SMDPad,CuDef*%
G36*
G01*
X136299999Y-53150000D02*
X137200001Y-53150000D01*
G75*
G02*
X137450000Y-53399999I0J-249999D01*
G01*
X137450000Y-54100001D01*
G75*
G02*
X137200001Y-54350000I-249999J0D01*
G01*
X136299999Y-54350000D01*
G75*
G02*
X136050000Y-54100001I0J249999D01*
G01*
X136050000Y-53399999D01*
G75*
G02*
X136299999Y-53150000I249999J0D01*
G01*
G37*
%TD.AperFunction*%
%TD*%
%TO.P,R1,1*%
%TO.N,Net-(J1-PadA5)*%
%TA.AperFunction,SMDPad,CuDef*%
G36*
G01*
X136700001Y-67350000D02*
X135799999Y-67350000D01*
G75*
G02*
X135550000Y-67100001I0J249999D01*
G01*
X135550000Y-66399999D01*
G75*
G02*
X135799999Y-66150000I249999J0D01*
G01*
X136700001Y-66150000D01*
G75*
G02*
X136950000Y-66399999I0J-249999D01*
G01*
X136950000Y-67100001D01*
G75*
G02*
X136700001Y-67350000I-249999J0D01*
G01*
G37*
%TD.AperFunction*%
%TO.P,R1,2*%
%TO.N,GND*%
%TA.AperFunction,SMDPad,CuDef*%
G36*
G01*
X136700001Y-65350000D02*
X135799999Y-65350000D01*
G75*
G02*
X135550000Y-65100001I0J249999D01*
G01*
X135550000Y-64399999D01*
G75*
G02*
X135799999Y-64150000I249999J0D01*
G01*
X136700001Y-64150000D01*
G75*
G02*
X136950000Y-64399999I0J-249999D01*
G01*
X136950000Y-65100001D01*
G75*
G02*
X136700001Y-65350000I-249999J0D01*
G01*
G37*
%TD.AperFunction*%
%TD*%
%TO.P,D2,1*%
%TO.N,GND*%
%TA.AperFunction,SMDPad,CuDef*%
G36*
G01*
X136299999Y-47400000D02*
X137200001Y-47400000D01*
G75*
G02*
X137450000Y-47649999I0J-249999D01*
G01*
X137450000Y-48300001D01*
G75*
G02*
X137200001Y-48550000I-249999J0D01*
G01*
X136299999Y-48550000D01*
G75*
G02*
X136050000Y-48300001I0J249999D01*
G01*
X136050000Y-47649999D01*
G75*
G02*
X136299999Y-47400000I249999J0D01*
G01*
G37*
%TD.AperFunction*%
%TO.P,D2,2*%
%TO.N,Net-(D2-Pad2)*%
%TA.AperFunction,SMDPad,CuDef*%
G36*
G01*
X136299999Y-49450000D02*
X137200001Y-49450000D01*
G75*
G02*
X137450000Y-49699999I0J-249999D01*
G01*
X137450000Y-50350001D01*
G75*
G02*
X137200001Y-50600000I-249999J0D01*
G01*
X136299999Y-50600000D01*
G75*
G02*
X136050000Y-50350001I0J249999D01*
G01*
X136050000Y-49699999D01*
G75*
G02*
X136299999Y-49450000I249999J0D01*
G01*
G37*
%TD.AperFunction*%
%TD*%
D13*
%TO.P,D1,1*%
%TO.N,GND*%
X133850000Y-64980000D03*
D14*
%TO.P,D1,2*%
%TO.N,D+*%
X133850000Y-66700000D03*
%TO.P,D1,3*%
%TO.N,D-*%
X131650000Y-66700000D03*
%TO.P,D1,4*%
%TO.N,+5V*%
X131650000Y-64800000D03*
%TD*%
%TO.P,C9,1*%
%TO.N,GND*%
%TA.AperFunction,SMDPad,CuDef*%
G36*
G01*
X128275000Y-47337500D02*
X129225000Y-47337500D01*
G75*
G02*
X129475000Y-47587500I0J-250000D01*
G01*
X129475000Y-48262500D01*
G75*
G02*
X129225000Y-48512500I-250000J0D01*
G01*
X128275000Y-48512500D01*
G75*
G02*
X128025000Y-48262500I0J250000D01*
G01*
X128025000Y-47587500D01*
G75*
G02*
X128275000Y-47337500I250000J0D01*
G01*
G37*
%TD.AperFunction*%
%TO.P,C9,2*%
%TO.N,+3V3*%
%TA.AperFunction,SMDPad,CuDef*%
G36*
G01*
X128275000Y-49412500D02*
X129225000Y-49412500D01*
G75*
G02*
X129475000Y-49662500I0J-250000D01*
G01*
X129475000Y-50337500D01*
G75*
G02*
X129225000Y-50587500I-250000J0D01*
G01*
X128275000Y-50587500D01*
G75*
G02*
X128025000Y-50337500I0J250000D01*
G01*
X128025000Y-49662500D01*
G75*
G02*
X128275000Y-49412500I250000J0D01*
G01*
G37*
%TD.AperFunction*%
%TD*%
%TO.P,C8,1*%
%TO.N,GND*%
%TA.AperFunction,SMDPad,CuDef*%
G36*
G01*
X130275000Y-47375000D02*
X131225000Y-47375000D01*
G75*
G02*
X131475000Y-47625000I0J-250000D01*
G01*
X131475000Y-48300000D01*
G75*
G02*
X131225000Y-48550000I-250000J0D01*
G01*
X130275000Y-48550000D01*
G75*
G02*
X130025000Y-48300000I0J250000D01*
G01*
X130025000Y-47625000D01*
G75*
G02*
X130275000Y-47375000I250000J0D01*
G01*
G37*
%TD.AperFunction*%
%TO.P,C8,2*%
%TO.N,+3V3*%
%TA.AperFunction,SMDPad,CuDef*%
G36*
G01*
X130275000Y-49450000D02*
X131225000Y-49450000D01*
G75*
G02*
X131475000Y-49700000I0J-250000D01*
G01*
X131475000Y-50375000D01*
G75*
G02*
X131225000Y-50625000I-250000J0D01*
G01*
X130275000Y-50625000D01*
G75*
G02*
X130025000Y-50375000I0J250000D01*
G01*
X130025000Y-49700000D01*
G75*
G02*
X130275000Y-49450000I250000J0D01*
G01*
G37*
%TD.AperFunction*%
%TD*%
%TO.P,C7,1*%
%TO.N,GND*%
%TA.AperFunction,SMDPad,CuDef*%
G36*
G01*
X132275000Y-47375000D02*
X133225000Y-47375000D01*
G75*
G02*
X133475000Y-47625000I0J-250000D01*
G01*
X133475000Y-48300000D01*
G75*
G02*
X133225000Y-48550000I-250000J0D01*
G01*
X132275000Y-48550000D01*
G75*
G02*
X132025000Y-48300000I0J250000D01*
G01*
X132025000Y-47625000D01*
G75*
G02*
X132275000Y-47375000I250000J0D01*
G01*
G37*
%TD.AperFunction*%
%TO.P,C7,2*%
%TO.N,+3V3*%
%TA.AperFunction,SMDPad,CuDef*%
G36*
G01*
X132275000Y-49450000D02*
X133225000Y-49450000D01*
G75*
G02*
X133475000Y-49700000I0J-250000D01*
G01*
X133475000Y-50375000D01*
G75*
G02*
X133225000Y-50625000I-250000J0D01*
G01*
X132275000Y-50625000D01*
G75*
G02*
X132025000Y-50375000I0J250000D01*
G01*
X132025000Y-49700000D01*
G75*
G02*
X132275000Y-49450000I250000J0D01*
G01*
G37*
%TD.AperFunction*%
%TD*%
%TO.P,C6,1*%
%TO.N,GND*%
%TA.AperFunction,SMDPad,CuDef*%
G36*
G01*
X126587500Y-59225000D02*
X126587500Y-58275000D01*
G75*
G02*
X126837500Y-58025000I250000J0D01*
G01*
X127512500Y-58025000D01*
G75*
G02*
X127762500Y-58275000I0J-250000D01*
G01*
X127762500Y-59225000D01*
G75*
G02*
X127512500Y-59475000I-250000J0D01*
G01*
X126837500Y-59475000D01*
G75*
G02*
X126587500Y-59225000I0J250000D01*
G01*
G37*
%TD.AperFunction*%
%TO.P,C6,2*%
%TO.N,+5V*%
%TA.AperFunction,SMDPad,CuDef*%
G36*
G01*
X128662500Y-59225000D02*
X128662500Y-58275000D01*
G75*
G02*
X128912500Y-58025000I250000J0D01*
G01*
X129587500Y-58025000D01*
G75*
G02*
X129837500Y-58275000I0J-250000D01*
G01*
X129837500Y-59225000D01*
G75*
G02*
X129587500Y-59475000I-250000J0D01*
G01*
X128912500Y-59475000D01*
G75*
G02*
X128662500Y-59225000I0J250000D01*
G01*
G37*
%TD.AperFunction*%
%TD*%
%TO.P,C5,1*%
%TO.N,GND*%
%TA.AperFunction,SMDPad,CuDef*%
G36*
G01*
X126587500Y-57225000D02*
X126587500Y-56275000D01*
G75*
G02*
X126837500Y-56025000I250000J0D01*
G01*
X127512500Y-56025000D01*
G75*
G02*
X127762500Y-56275000I0J-250000D01*
G01*
X127762500Y-57225000D01*
G75*
G02*
X127512500Y-57475000I-250000J0D01*
G01*
X126837500Y-57475000D01*
G75*
G02*
X126587500Y-57225000I0J250000D01*
G01*
G37*
%TD.AperFunction*%
%TO.P,C5,2*%
%TO.N,+5V*%
%TA.AperFunction,SMDPad,CuDef*%
G36*
G01*
X128662500Y-57225000D02*
X128662500Y-56275000D01*
G75*
G02*
X128912500Y-56025000I250000J0D01*
G01*
X129587500Y-56025000D01*
G75*
G02*
X129837500Y-56275000I0J-250000D01*
G01*
X129837500Y-57225000D01*
G75*
G02*
X129587500Y-57475000I-250000J0D01*
G01*
X128912500Y-57475000D01*
G75*
G02*
X128662500Y-57225000I0J250000D01*
G01*
G37*
%TD.AperFunction*%
%TD*%
%TO.P,C4,1*%
%TO.N,GND*%
%TA.AperFunction,SMDPad,CuDef*%
G36*
G01*
X128265076Y-52936827D02*
X128936827Y-52265076D01*
G75*
G02*
X129290381Y-52265076I176777J-176777D01*
G01*
X129767678Y-52742373D01*
G75*
G02*
X129767678Y-53095927I-176777J-176777D01*
G01*
X129095927Y-53767678D01*
G75*
G02*
X128742373Y-53767678I-176777J176777D01*
G01*
X128265076Y-53290381D01*
G75*
G02*
X128265076Y-52936827I176777J176777D01*
G01*
G37*
%TD.AperFunction*%
%TO.P,C4,2*%
%TO.N,+5V*%
%TA.AperFunction,SMDPad,CuDef*%
G36*
G01*
X129732322Y-54404073D02*
X130404073Y-53732322D01*
G75*
G02*
X130757627Y-53732322I176777J-176777D01*
G01*
X131234924Y-54209619D01*
G75*
G02*
X131234924Y-54563173I-176777J-176777D01*
G01*
X130563173Y-55234924D01*
G75*
G02*
X130209619Y-55234924I-176777J176777D01*
G01*
X129732322Y-54757627D01*
G75*
G02*
X129732322Y-54404073I176777J176777D01*
G01*
G37*
%TD.AperFunction*%
%TD*%
%TO.P,C3,1*%
%TO.N,GND*%
%TA.AperFunction,SMDPad,CuDef*%
G36*
G01*
X126625000Y-61225000D02*
X126625000Y-60275000D01*
G75*
G02*
X126875000Y-60025000I250000J0D01*
G01*
X127550000Y-60025000D01*
G75*
G02*
X127800000Y-60275000I0J-250000D01*
G01*
X127800000Y-61225000D01*
G75*
G02*
X127550000Y-61475000I-250000J0D01*
G01*
X126875000Y-61475000D01*
G75*
G02*
X126625000Y-61225000I0J250000D01*
G01*
G37*
%TD.AperFunction*%
%TO.P,C3,2*%
%TO.N,+3V3*%
%TA.AperFunction,SMDPad,CuDef*%
G36*
G01*
X128700000Y-61225000D02*
X128700000Y-60275000D01*
G75*
G02*
X128950000Y-60025000I250000J0D01*
G01*
X129625000Y-60025000D01*
G75*
G02*
X129875000Y-60275000I0J-250000D01*
G01*
X129875000Y-61225000D01*
G75*
G02*
X129625000Y-61475000I-250000J0D01*
G01*
X128950000Y-61475000D01*
G75*
G02*
X128700000Y-61225000I0J250000D01*
G01*
G37*
%TD.AperFunction*%
%TD*%
%TO.P,C2,1*%
%TO.N,GND*%
%TA.AperFunction,SMDPad,CuDef*%
G36*
G01*
X126625000Y-63225000D02*
X126625000Y-62275000D01*
G75*
G02*
X126875000Y-62025000I250000J0D01*
G01*
X127550000Y-62025000D01*
G75*
G02*
X127800000Y-62275000I0J-250000D01*
G01*
X127800000Y-63225000D01*
G75*
G02*
X127550000Y-63475000I-250000J0D01*
G01*
X126875000Y-63475000D01*
G75*
G02*
X126625000Y-63225000I0J250000D01*
G01*
G37*
%TD.AperFunction*%
%TO.P,C2,2*%
%TO.N,+3V3*%
%TA.AperFunction,SMDPad,CuDef*%
G36*
G01*
X128700000Y-63225000D02*
X128700000Y-62275000D01*
G75*
G02*
X128950000Y-62025000I250000J0D01*
G01*
X129625000Y-62025000D01*
G75*
G02*
X129875000Y-62275000I0J-250000D01*
G01*
X129875000Y-63225000D01*
G75*
G02*
X129625000Y-63475000I-250000J0D01*
G01*
X128950000Y-63475000D01*
G75*
G02*
X128700000Y-63225000I0J250000D01*
G01*
G37*
%TD.AperFunction*%
%TD*%
%TO.P,C1,1*%
%TO.N,GND*%
%TA.AperFunction,SMDPad,CuDef*%
G36*
G01*
X126587500Y-65225000D02*
X126587500Y-64275000D01*
G75*
G02*
X126837500Y-64025000I250000J0D01*
G01*
X127512500Y-64025000D01*
G75*
G02*
X127762500Y-64275000I0J-250000D01*
G01*
X127762500Y-65225000D01*
G75*
G02*
X127512500Y-65475000I-250000J0D01*
G01*
X126837500Y-65475000D01*
G75*
G02*
X126587500Y-65225000I0J250000D01*
G01*
G37*
%TD.AperFunction*%
%TO.P,C1,2*%
%TO.N,+3V3*%
%TA.AperFunction,SMDPad,CuDef*%
G36*
G01*
X128662500Y-65225000D02*
X128662500Y-64275000D01*
G75*
G02*
X128912500Y-64025000I250000J0D01*
G01*
X129587500Y-64025000D01*
G75*
G02*
X129837500Y-64275000I0J-250000D01*
G01*
X129837500Y-65225000D01*
G75*
G02*
X129587500Y-65475000I-250000J0D01*
G01*
X128912500Y-65475000D01*
G75*
G02*
X128662500Y-65225000I0J250000D01*
G01*
G37*
%TD.AperFunction*%
%TD*%
D15*
%TO.N,+3V3*%
X127500005Y-50700005D03*
X131800000Y-62200004D03*
%TO.N,GND*%
X126000000Y-65750000D03*
X128250000Y-66250000D03*
X130800000Y-62200000D03*
X130800000Y-59800000D03*
X133300000Y-63100000D03*
X139500000Y-65500000D03*
X128500000Y-51500000D03*
X128400000Y-68200000D03*
X130800000Y-57800000D03*
X131800000Y-55600000D03*
X132000000Y-63000000D03*
X134750008Y-62250000D03*
X131250000Y-52500000D03*
X139000000Y-45750000D03*
X126000000Y-46000000D03*
X126000000Y-47250000D03*
X134000000Y-55750000D03*
X137750000Y-58750000D03*
D16*
%TO.N,+5V*%
X134500000Y-68000000D03*
X131000000Y-68000000D03*
%TO.N,D+*%
X133075000Y-67749994D03*
%TO.N,D-*%
X132250000Y-67749992D03*
%TO.N,Net-(J1-PadA5)*%
X133800000Y-67750002D03*
D15*
%TO.N,Net-(R5-Pad1)*%
X138000000Y-50250000D03*
%TO.N,XB_RX*%
X135750029Y-62250000D03*
%TO.N,XB_TX*%
X136559893Y-62190107D03*
%TO.N,XB_CTS*%
X137407769Y-62157769D03*
%TO.N,XB_RTS*%
X137750000Y-56000000D03*
%TD*%
D17*
%TO.N,+3V3*%
X132496097Y-59503903D02*
X132496097Y-59486136D01*
X132000000Y-60000000D02*
X132496097Y-59503903D01*
X132000000Y-60750000D02*
X132000000Y-60000000D01*
X132849651Y-59900349D02*
X132000000Y-60750000D01*
X132849651Y-59839689D02*
X132849651Y-59900349D01*
D18*
X129287500Y-64712500D02*
X129250000Y-64750000D01*
X129287500Y-60750000D02*
X129287500Y-64712500D01*
D17*
X129287500Y-60750000D02*
X131232233Y-60750000D01*
X132000000Y-60750000D02*
X131232233Y-60750000D01*
D18*
X128787500Y-50037500D02*
X128750000Y-50000000D01*
X132750000Y-50037500D02*
X128787500Y-50037500D01*
X128750000Y-50000000D02*
X128200010Y-50000000D01*
X128200010Y-50000000D02*
X127500005Y-50700005D01*
D17*
X131799996Y-62200004D02*
X131800000Y-62200004D01*
X129250000Y-64750000D02*
X131799996Y-62200004D01*
X132750000Y-50037500D02*
X133037500Y-50037500D01*
X135875000Y-50875000D02*
X136750000Y-51750000D01*
X133875000Y-50875000D02*
X135875000Y-50875000D01*
X133037500Y-50037500D02*
X133875000Y-50875000D01*
X130400000Y-52350000D02*
X132712500Y-50037500D01*
X130400000Y-53100000D02*
X130400000Y-52350000D01*
X128200000Y-55300000D02*
X130400000Y-53100000D01*
X132712500Y-50037500D02*
X132750000Y-50037500D01*
X128200000Y-59450000D02*
X128200000Y-55300000D01*
X129287500Y-60537500D02*
X128200000Y-59450000D01*
X129287500Y-60750000D02*
X129287500Y-60537500D01*
%TO.N,GND*%
X133850000Y-63650000D02*
X133300000Y-63100000D01*
X133850000Y-64980000D02*
X133850000Y-63650000D01*
X135500000Y-69000000D02*
X135500000Y-68700000D01*
X135500000Y-68700000D02*
X135700000Y-68500000D01*
X135700000Y-68500000D02*
X136100000Y-68500000D01*
X134750000Y-60060660D02*
X134750000Y-59000000D01*
X133910311Y-60900349D02*
X134750000Y-60060660D01*
X130000000Y-68400000D02*
X130000000Y-69000000D01*
X129800000Y-68200000D02*
X130000000Y-68400000D01*
X129370000Y-68200000D02*
X129800000Y-68200000D01*
X129330000Y-68160000D02*
X129370000Y-68200000D01*
X129290000Y-68200000D02*
X129330000Y-68160000D01*
X128400000Y-68200000D02*
X129290000Y-68200000D01*
X136250000Y-63749992D02*
X134750008Y-62250000D01*
X136250000Y-64750000D02*
X136250000Y-63749992D01*
X134000000Y-62250000D02*
X134750008Y-62250000D01*
X133500000Y-61750000D02*
X134000000Y-62250000D01*
X133500000Y-61310660D02*
X133500000Y-61750000D01*
X133910311Y-60900349D02*
X133500000Y-61310660D01*
X132712500Y-47925000D02*
X132750000Y-47962500D01*
X128750000Y-47925000D02*
X132712500Y-47925000D01*
X132750000Y-51750000D02*
X132000000Y-51750000D01*
X132000000Y-51750000D02*
X131250000Y-52500000D01*
X136775000Y-48000000D02*
X136750000Y-47975000D01*
D18*
X136750000Y-47975000D02*
X138725000Y-47975000D01*
X128750000Y-47925000D02*
X126825000Y-47925000D01*
D19*
%TO.N,+5V*%
X134300000Y-68000000D02*
X134500000Y-68000000D01*
X134000000Y-68300000D02*
X134300000Y-68000000D01*
X134000000Y-69000000D02*
X134000000Y-68300000D01*
X131200000Y-68000000D02*
X131000000Y-68000000D01*
X131500000Y-68300000D02*
X131200000Y-68000000D01*
X131500000Y-69000000D02*
X131500000Y-68300000D01*
D17*
X132000000Y-52750000D02*
X134750000Y-52750000D01*
X130483623Y-54266377D02*
X132000000Y-52750000D01*
X130483623Y-54483623D02*
X130483623Y-54266377D01*
X134750000Y-51750000D02*
X134750000Y-52750000D01*
D18*
X129250000Y-58750000D02*
X129250000Y-56750000D01*
X129250000Y-55717246D02*
X130483623Y-54483623D01*
X129250000Y-56750000D02*
X129250000Y-55717246D01*
D17*
X132496097Y-58513864D02*
X132259961Y-58750000D01*
X132259961Y-58750000D02*
X129250000Y-58750000D01*
X131650000Y-64800000D02*
X130700000Y-64800000D01*
X130700000Y-64800000D02*
X130500000Y-65000000D01*
X130500000Y-67500000D02*
X131000000Y-68000000D01*
X130500000Y-65000000D02*
X130500000Y-67500000D01*
D19*
X131000000Y-68000000D02*
X131250000Y-68250000D01*
X131250000Y-68250000D02*
X134250000Y-68250000D01*
X134250000Y-68250000D02*
X134500000Y-68000000D01*
D17*
X138500000Y-66075000D02*
X138500000Y-53500000D01*
X137500000Y-52750000D02*
X134750000Y-52750000D01*
X138500000Y-53500000D02*
X137750000Y-52750000D01*
X134500000Y-68000000D02*
X134600000Y-67900000D01*
X134600000Y-67900000D02*
X136675000Y-67900000D01*
X136675000Y-67900000D02*
X138500000Y-66075000D01*
X137750000Y-52750000D02*
X137500000Y-52750000D01*
%TO.N,D+*%
X133850000Y-66700000D02*
X133450000Y-66700000D01*
D19*
X133850000Y-66700000D02*
X133075000Y-67475000D01*
X133075000Y-67475000D02*
X133075000Y-67749994D01*
X134100000Y-66700000D02*
X133850000Y-66700000D01*
X135000000Y-65800000D02*
X134100000Y-66700000D01*
X135000000Y-64000000D02*
X135000000Y-65800000D01*
X133050011Y-62050011D02*
X135000000Y-64000000D01*
X133050011Y-61049989D02*
X133050011Y-62050011D01*
X133553204Y-60546796D02*
X133050011Y-61049989D01*
X133556757Y-60546796D02*
X133553204Y-60546796D01*
%TO.N,D-*%
X131650000Y-66700000D02*
X132250000Y-67300000D01*
X132250000Y-67300000D02*
X132250000Y-67749992D01*
X131900000Y-66700000D02*
X131650000Y-66700000D01*
X132750000Y-65850000D02*
X131900000Y-66700000D01*
X132750000Y-63550000D02*
X132750000Y-65850000D01*
X132600000Y-60800000D02*
X132600000Y-63400000D01*
X132600000Y-63400000D02*
X132750000Y-63550000D01*
X133203204Y-60196796D02*
X132600000Y-60800000D01*
X133203204Y-60193243D02*
X133203204Y-60196796D01*
D18*
%TO.N,Net-(D2-Pad2)*%
X136725000Y-50000000D02*
X136750000Y-50025000D01*
X134750000Y-50000000D02*
X136725000Y-50000000D01*
D19*
%TO.N,Net-(J1-PadA5)*%
X136250000Y-66750000D02*
X135500000Y-67500000D01*
X135500000Y-67500000D02*
X134050002Y-67500000D01*
X134050002Y-67500000D02*
X133800000Y-67750002D01*
D17*
%TO.N,Net-(R2-Pad2)*%
X136750000Y-54650000D02*
X136750000Y-53750000D01*
X136400000Y-55000000D02*
X136750000Y-54650000D01*
X133400000Y-55000000D02*
X136400000Y-55000000D01*
X132927565Y-55472435D02*
X133400000Y-55000000D01*
X132927565Y-57531118D02*
X132927565Y-55472435D01*
X133203204Y-57806757D02*
X132927565Y-57531118D01*
%TO.N,Net-(R3-Pad2)*%
X132750000Y-53750000D02*
X134750000Y-53750000D01*
X132750000Y-55050000D02*
X132750000Y-53750000D01*
X132500000Y-55300000D02*
X132750000Y-55050000D01*
X132500000Y-57810660D02*
X132500000Y-55300000D01*
X132849651Y-58160311D02*
X132500000Y-57810660D01*
%TO.N,Net-(R5-Pad1)*%
X138000000Y-49575736D02*
X138000000Y-50250000D01*
X137424264Y-49000000D02*
X138000000Y-49575736D01*
X135750000Y-49000000D02*
X137424264Y-49000000D01*
X134750000Y-48000000D02*
X135750000Y-49000000D01*
%TO.N,XB_RX*%
X136572433Y-60468880D02*
X136572433Y-61003332D01*
X135750029Y-61825736D02*
X135750029Y-62250000D01*
X136296796Y-60193243D02*
X136572433Y-60468880D01*
X136572433Y-61003332D02*
X135750029Y-61825736D01*
%TO.N,XB_TX*%
X136972444Y-61777556D02*
X136559893Y-62190107D01*
X136972444Y-60161784D02*
X136972444Y-61777556D01*
X136650349Y-59839689D02*
X136972444Y-60161784D01*
%TO.N,XB_CTS*%
X137407769Y-59870994D02*
X137407769Y-62157769D01*
X137022911Y-59486136D02*
X137407769Y-59870994D01*
X137003903Y-59486136D02*
X137022911Y-59486136D01*
%TO.N,XB_RTS*%
X137750000Y-57767767D02*
X137750000Y-57750000D01*
X137750000Y-57750000D02*
X137750000Y-56000000D01*
X137003903Y-58513864D02*
X137750000Y-57767767D01*
%TD*%
D19*
%TO.N,GND*%
X135621849Y-68702977D02*
X135617251Y-68706728D01*
X135587176Y-68731609D01*
X135561935Y-68757027D01*
X135561935Y-68700000D01*
X135626398Y-68700000D01*
X135621849Y-68702977D01*
%TA.AperFunction,Conductor*%
D20*
G36*
X135621849Y-68702977D02*
G01*
X135617251Y-68706728D01*
X135587176Y-68731609D01*
X135561935Y-68757027D01*
X135561935Y-68700000D01*
X135626398Y-68700000D01*
X135621849Y-68702977D01*
G37*
%TD.AperFunction*%
D19*
X139764174Y-45678428D02*
X139777802Y-45682543D01*
X139790377Y-45689229D01*
X139801408Y-45698225D01*
X139810489Y-45709203D01*
X139817263Y-45721730D01*
X139821472Y-45735326D01*
X139823533Y-45754940D01*
X139823528Y-65379211D01*
X139813462Y-65481867D01*
X139789686Y-65560619D01*
X139751067Y-65633249D01*
X139686319Y-65712640D01*
X136823960Y-68575000D01*
X136060484Y-68575000D01*
X136061935Y-68500000D01*
X136054548Y-68425000D01*
X136649220Y-68425000D01*
X136675000Y-68427539D01*
X136700780Y-68425000D01*
X136700788Y-68425000D01*
X136777918Y-68417403D01*
X136876881Y-68387383D01*
X136968086Y-68338633D01*
X137048027Y-68273027D01*
X137064471Y-68252990D01*
X138853001Y-66464462D01*
X138873027Y-66448027D01*
X138889462Y-66428001D01*
X138889466Y-66427997D01*
X138922291Y-66387999D01*
X138938633Y-66368086D01*
X138987383Y-66276881D01*
X139017403Y-66177918D01*
X139025000Y-66100788D01*
X139025000Y-66100787D01*
X139027540Y-66075000D01*
X139025000Y-66049212D01*
X139025000Y-53525779D01*
X139027539Y-53499999D01*
X139025000Y-53474219D01*
X139025000Y-53474212D01*
X139017403Y-53397082D01*
X138987383Y-53298119D01*
X138938633Y-53206914D01*
X138873027Y-53126973D01*
X138852995Y-53110534D01*
X138139471Y-52397010D01*
X138123027Y-52376973D01*
X138043086Y-52311367D01*
X137951881Y-52262617D01*
X137852918Y-52232597D01*
X137838206Y-52231148D01*
X137839408Y-52227187D01*
X137851935Y-52100001D01*
X137851935Y-51399999D01*
X137839408Y-51272813D01*
X137802309Y-51150515D01*
X137742064Y-51037804D01*
X137660988Y-50939012D01*
X137582989Y-50875000D01*
X137624467Y-50840960D01*
X137668426Y-50870332D01*
X137795818Y-50923099D01*
X137931056Y-50950000D01*
X138068944Y-50950000D01*
X138204182Y-50923099D01*
X138331574Y-50870332D01*
X138446224Y-50793726D01*
X138543726Y-50696224D01*
X138620332Y-50581574D01*
X138673099Y-50454182D01*
X138700000Y-50318944D01*
X138700000Y-50181056D01*
X138673099Y-50045818D01*
X138620332Y-49918426D01*
X138543726Y-49803776D01*
X138525000Y-49785050D01*
X138525000Y-49601524D01*
X138527540Y-49575736D01*
X138517403Y-49472818D01*
X138487383Y-49373855D01*
X138444211Y-49293086D01*
X138438633Y-49282650D01*
X138373027Y-49202709D01*
X138352995Y-49186269D01*
X138016725Y-48850000D01*
X138250000Y-48850000D01*
X138269509Y-48848079D01*
X138288268Y-48842388D01*
X138305557Y-48833147D01*
X138320711Y-48820711D01*
X138333147Y-48805557D01*
X138342388Y-48788268D01*
X138348079Y-48769509D01*
X138350000Y-48750000D01*
X138350000Y-45675000D01*
X139729213Y-45675000D01*
X139764174Y-45678428D01*
%TA.AperFunction,Conductor*%
D20*
G36*
X139764174Y-45678428D02*
G01*
X139777802Y-45682543D01*
X139790377Y-45689229D01*
X139801408Y-45698225D01*
X139810489Y-45709203D01*
X139817263Y-45721730D01*
X139821472Y-45735326D01*
X139823533Y-45754940D01*
X139823528Y-65379211D01*
X139813462Y-65481867D01*
X139789686Y-65560619D01*
X139751067Y-65633249D01*
X139686319Y-65712640D01*
X136823960Y-68575000D01*
X136060484Y-68575000D01*
X136061935Y-68500000D01*
X136054548Y-68425000D01*
X136649220Y-68425000D01*
X136675000Y-68427539D01*
X136700780Y-68425000D01*
X136700788Y-68425000D01*
X136777918Y-68417403D01*
X136876881Y-68387383D01*
X136968086Y-68338633D01*
X137048027Y-68273027D01*
X137064471Y-68252990D01*
X138853001Y-66464462D01*
X138873027Y-66448027D01*
X138889462Y-66428001D01*
X138889466Y-66427997D01*
X138922291Y-66387999D01*
X138938633Y-66368086D01*
X138987383Y-66276881D01*
X139017403Y-66177918D01*
X139025000Y-66100788D01*
X139025000Y-66100787D01*
X139027540Y-66075000D01*
X139025000Y-66049212D01*
X139025000Y-53525779D01*
X139027539Y-53499999D01*
X139025000Y-53474219D01*
X139025000Y-53474212D01*
X139017403Y-53397082D01*
X138987383Y-53298119D01*
X138938633Y-53206914D01*
X138873027Y-53126973D01*
X138852995Y-53110534D01*
X138139471Y-52397010D01*
X138123027Y-52376973D01*
X138043086Y-52311367D01*
X137951881Y-52262617D01*
X137852918Y-52232597D01*
X137838206Y-52231148D01*
X137839408Y-52227187D01*
X137851935Y-52100001D01*
X137851935Y-51399999D01*
X137839408Y-51272813D01*
X137802309Y-51150515D01*
X137742064Y-51037804D01*
X137660988Y-50939012D01*
X137582989Y-50875000D01*
X137624467Y-50840960D01*
X137668426Y-50870332D01*
X137795818Y-50923099D01*
X137931056Y-50950000D01*
X138068944Y-50950000D01*
X138204182Y-50923099D01*
X138331574Y-50870332D01*
X138446224Y-50793726D01*
X138543726Y-50696224D01*
X138620332Y-50581574D01*
X138673099Y-50454182D01*
X138700000Y-50318944D01*
X138700000Y-50181056D01*
X138673099Y-50045818D01*
X138620332Y-49918426D01*
X138543726Y-49803776D01*
X138525000Y-49785050D01*
X138525000Y-49601524D01*
X138527540Y-49575736D01*
X138517403Y-49472818D01*
X138487383Y-49373855D01*
X138444211Y-49293086D01*
X138438633Y-49282650D01*
X138373027Y-49202709D01*
X138352995Y-49186269D01*
X138016725Y-48850000D01*
X138250000Y-48850000D01*
X138269509Y-48848079D01*
X138288268Y-48842388D01*
X138305557Y-48833147D01*
X138320711Y-48820711D01*
X138333147Y-48805557D01*
X138342388Y-48788268D01*
X138348079Y-48769509D01*
X138350000Y-48750000D01*
X138350000Y-45675000D01*
X139729213Y-45675000D01*
X139764174Y-45678428D01*
G37*
%TD.AperFunction*%
D19*
X127150000Y-48750000D02*
X127151921Y-48769509D01*
X127157612Y-48788268D01*
X127166853Y-48805557D01*
X127179289Y-48820711D01*
X127194443Y-48833147D01*
X127211732Y-48842388D01*
X127230491Y-48848079D01*
X127250000Y-48850000D01*
X127807876Y-48850000D01*
X127871186Y-48883840D01*
X127946586Y-48906712D01*
X128025000Y-48914435D01*
X128350000Y-48912500D01*
X128412500Y-48850000D01*
X129087500Y-48850000D01*
X129150000Y-48912500D01*
X129475000Y-48914435D01*
X129553414Y-48906712D01*
X129628814Y-48883840D01*
X129692124Y-48850000D01*
X129760028Y-48850000D01*
X129801697Y-48884197D01*
X129871186Y-48921340D01*
X129946586Y-48944212D01*
X130025000Y-48951935D01*
X130350000Y-48950000D01*
X130450000Y-48850000D01*
X131050000Y-48850000D01*
X131150000Y-48950000D01*
X131475000Y-48951935D01*
X131553414Y-48944212D01*
X131628814Y-48921340D01*
X131698303Y-48884197D01*
X131739972Y-48850000D01*
X131760028Y-48850000D01*
X131801697Y-48884197D01*
X131871186Y-48921340D01*
X131946586Y-48944212D01*
X132025000Y-48951935D01*
X132350000Y-48950000D01*
X132449998Y-48850002D01*
X132449998Y-48950000D01*
X132650000Y-48950000D01*
X132650000Y-49048065D01*
X132275000Y-49048065D01*
X132147814Y-49060592D01*
X132025515Y-49097691D01*
X131912804Y-49157936D01*
X131814012Y-49239012D01*
X131750000Y-49317011D01*
X131685988Y-49239012D01*
X131587196Y-49157936D01*
X131474485Y-49097691D01*
X131352186Y-49060592D01*
X131225000Y-49048065D01*
X130275000Y-49048065D01*
X130147814Y-49060592D01*
X130025515Y-49097691D01*
X129912804Y-49157936D01*
X129814012Y-49239012D01*
X129765388Y-49298261D01*
X129685988Y-49201512D01*
X129587196Y-49120436D01*
X129474485Y-49060191D01*
X129352186Y-49023092D01*
X129225000Y-49010565D01*
X128275000Y-49010565D01*
X128147814Y-49023092D01*
X128025515Y-49060191D01*
X127912804Y-49120436D01*
X127814012Y-49201512D01*
X127732936Y-49300304D01*
X127672691Y-49413015D01*
X127635592Y-49535314D01*
X127623589Y-49657182D01*
X127224198Y-50056574D01*
X127168431Y-50079673D01*
X127053781Y-50156279D01*
X126956279Y-50253781D01*
X126879673Y-50368431D01*
X126826906Y-50495823D01*
X126800005Y-50631061D01*
X126800005Y-50768949D01*
X126826906Y-50904187D01*
X126879673Y-51031579D01*
X126956279Y-51146229D01*
X127053781Y-51243731D01*
X127168431Y-51320337D01*
X127295823Y-51373104D01*
X127431061Y-51400005D01*
X127568949Y-51400005D01*
X127704187Y-51373104D01*
X127831579Y-51320337D01*
X127946229Y-51243731D01*
X128043731Y-51146229D01*
X128120337Y-51031579D01*
X128143436Y-50975812D01*
X128143614Y-50975634D01*
X128147814Y-50976908D01*
X128275000Y-50989435D01*
X129225000Y-50989435D01*
X129352186Y-50976908D01*
X129474485Y-50939809D01*
X129587196Y-50879564D01*
X129685988Y-50798488D01*
X129734612Y-50739239D01*
X129814012Y-50835988D01*
X129912804Y-50917064D01*
X130025515Y-50977309D01*
X130147814Y-51014408D01*
X130275000Y-51026935D01*
X130980603Y-51026935D01*
X130047005Y-51960534D01*
X130026974Y-51976973D01*
X130010535Y-51997004D01*
X129961367Y-52056915D01*
X129912617Y-52148120D01*
X129882597Y-52247083D01*
X129878539Y-52288284D01*
X129875000Y-52324212D01*
X129875000Y-52324220D01*
X129872461Y-52350000D01*
X129875000Y-52375780D01*
X129875000Y-52582018D01*
X129440641Y-53016377D01*
X129454784Y-53030520D01*
X129030520Y-53454784D01*
X129016377Y-53440641D01*
X128503725Y-53953293D01*
X128503725Y-54094715D01*
X128582453Y-54175085D01*
X127847005Y-54910534D01*
X127826974Y-54926973D01*
X127810535Y-54947004D01*
X127761367Y-55006915D01*
X127712617Y-55098120D01*
X127682597Y-55197083D01*
X127672461Y-55300000D01*
X127675001Y-55325790D01*
X127675001Y-55623968D01*
X127575000Y-55625000D01*
X127475000Y-55725000D01*
X127475000Y-56450000D01*
X127495000Y-56450000D01*
X127495000Y-57050000D01*
X127475000Y-57050000D01*
X127475000Y-58450000D01*
X127495000Y-58450000D01*
X127495000Y-59050000D01*
X127475000Y-59050000D01*
X127475000Y-59775000D01*
X127512500Y-59812500D01*
X127512500Y-60450000D01*
X128100000Y-60450000D01*
X128200000Y-60350000D01*
X128200932Y-60193394D01*
X128298065Y-60290526D01*
X128298065Y-61225000D01*
X128310592Y-61352186D01*
X128347691Y-61474485D01*
X128407936Y-61587196D01*
X128489012Y-61685988D01*
X128567011Y-61750000D01*
X128489012Y-61814012D01*
X128407936Y-61912804D01*
X128347691Y-62025515D01*
X128310592Y-62147814D01*
X128298065Y-62275000D01*
X128298065Y-63225000D01*
X128310592Y-63352186D01*
X128347691Y-63474485D01*
X128407936Y-63587196D01*
X128489012Y-63685988D01*
X128548261Y-63734612D01*
X128451512Y-63814012D01*
X128370436Y-63912804D01*
X128310191Y-64025515D01*
X128273092Y-64147814D01*
X128260565Y-64275000D01*
X128260565Y-65225000D01*
X128273092Y-65352186D01*
X128310191Y-65474485D01*
X128370436Y-65587196D01*
X128451512Y-65685988D01*
X128550304Y-65767064D01*
X128663015Y-65827309D01*
X128785314Y-65864408D01*
X128912500Y-65876935D01*
X129587500Y-65876935D01*
X129714686Y-65864408D01*
X129836985Y-65827309D01*
X129949696Y-65767064D01*
X129975000Y-65746297D01*
X129975001Y-67344399D01*
X129939211Y-67300789D01*
X129878303Y-67250803D01*
X129808814Y-67213660D01*
X129733414Y-67190788D01*
X129655000Y-67183065D01*
X129655000Y-67185000D01*
X129555000Y-67285000D01*
X129555000Y-67860000D01*
X129955000Y-67860000D01*
X130047625Y-67767375D01*
X130061367Y-67793085D01*
X130074500Y-67809087D01*
X130126974Y-67873027D01*
X130147004Y-67889466D01*
X130355603Y-68098065D01*
X130340000Y-68098065D01*
X130261586Y-68105788D01*
X130250000Y-68109303D01*
X130238414Y-68105788D01*
X130160000Y-68098065D01*
X130160000Y-68100000D01*
X130060000Y-68200000D01*
X130060000Y-68212333D01*
X130055789Y-68215789D01*
X130005803Y-68276697D01*
X129968660Y-68346186D01*
X129945788Y-68421586D01*
X129942005Y-68460000D01*
X129940000Y-68460000D01*
X129940000Y-68200000D01*
X129840000Y-68100000D01*
X129840000Y-68098065D01*
X129761586Y-68105788D01*
X129686186Y-68128660D01*
X129616697Y-68165803D01*
X129555789Y-68215789D01*
X129505803Y-68276697D01*
X129468660Y-68346186D01*
X129445788Y-68421586D01*
X129440035Y-68480000D01*
X129105000Y-68480000D01*
X129105000Y-68460000D01*
X128705000Y-68460000D01*
X128605000Y-68560000D01*
X128604834Y-68575000D01*
X128425947Y-68575000D01*
X127435197Y-67585000D01*
X128603065Y-67585000D01*
X128605000Y-67760000D01*
X128705000Y-67860000D01*
X129105000Y-67860000D01*
X129105000Y-67285000D01*
X129005000Y-67185000D01*
X129005000Y-67183065D01*
X128926586Y-67190788D01*
X128851186Y-67213660D01*
X128781697Y-67250803D01*
X128720789Y-67300789D01*
X128670803Y-67361697D01*
X128633660Y-67431186D01*
X128610788Y-67506586D01*
X128603065Y-67585000D01*
X127435197Y-67585000D01*
X125814133Y-65965164D01*
X125748526Y-65885293D01*
X125709515Y-65812538D01*
X125685382Y-65733601D01*
X125675000Y-65631393D01*
X125675000Y-65475000D01*
X126185565Y-65475000D01*
X126193288Y-65553414D01*
X126216160Y-65628814D01*
X126253303Y-65698303D01*
X126303289Y-65759211D01*
X126364197Y-65809197D01*
X126433686Y-65846340D01*
X126509086Y-65869212D01*
X126587500Y-65876935D01*
X126775000Y-65875000D01*
X126875000Y-65775000D01*
X126875000Y-65050000D01*
X127475000Y-65050000D01*
X127475000Y-65775000D01*
X127575000Y-65875000D01*
X127762500Y-65876935D01*
X127840914Y-65869212D01*
X127916314Y-65846340D01*
X127985803Y-65809197D01*
X128046711Y-65759211D01*
X128096697Y-65698303D01*
X128133840Y-65628814D01*
X128156712Y-65553414D01*
X128164435Y-65475000D01*
X128162500Y-65150000D01*
X128062500Y-65050000D01*
X127475000Y-65050000D01*
X126875000Y-65050000D01*
X126287500Y-65050000D01*
X126187500Y-65150000D01*
X126185565Y-65475000D01*
X125675000Y-65475000D01*
X125675000Y-64025000D01*
X126185565Y-64025000D01*
X126187500Y-64350000D01*
X126287500Y-64450000D01*
X126875000Y-64450000D01*
X126875000Y-63812500D01*
X126912500Y-63775000D01*
X126912500Y-63725000D01*
X127475000Y-63725000D01*
X127475000Y-64450000D01*
X128062500Y-64450000D01*
X128162500Y-64350000D01*
X128164435Y-64025000D01*
X128156712Y-63946586D01*
X128133840Y-63871186D01*
X128096697Y-63801697D01*
X128070837Y-63770187D01*
X128084211Y-63759211D01*
X128134197Y-63698303D01*
X128171340Y-63628814D01*
X128194212Y-63553414D01*
X128201935Y-63475000D01*
X128200000Y-63150000D01*
X128100000Y-63050000D01*
X127512500Y-63050000D01*
X127512500Y-63687500D01*
X127475000Y-63725000D01*
X126912500Y-63725000D01*
X126912500Y-63050000D01*
X126325000Y-63050000D01*
X126225000Y-63150000D01*
X126223065Y-63475000D01*
X126230788Y-63553414D01*
X126253660Y-63628814D01*
X126290803Y-63698303D01*
X126316663Y-63729813D01*
X126303289Y-63740789D01*
X126253303Y-63801697D01*
X126216160Y-63871186D01*
X126193288Y-63946586D01*
X126185565Y-64025000D01*
X125675000Y-64025000D01*
X125675000Y-61475000D01*
X126223065Y-61475000D01*
X126230788Y-61553414D01*
X126253660Y-61628814D01*
X126290803Y-61698303D01*
X126333230Y-61750000D01*
X126290803Y-61801697D01*
X126253660Y-61871186D01*
X126230788Y-61946586D01*
X126223065Y-62025000D01*
X126225000Y-62350000D01*
X126325000Y-62450000D01*
X126912500Y-62450000D01*
X126912500Y-61050000D01*
X127512500Y-61050000D01*
X127512500Y-62450000D01*
X128100000Y-62450000D01*
X128200000Y-62350000D01*
X128201935Y-62025000D01*
X128194212Y-61946586D01*
X128171340Y-61871186D01*
X128134197Y-61801697D01*
X128091770Y-61750000D01*
X128134197Y-61698303D01*
X128171340Y-61628814D01*
X128194212Y-61553414D01*
X128201935Y-61475000D01*
X128200000Y-61150000D01*
X128100000Y-61050000D01*
X127512500Y-61050000D01*
X126912500Y-61050000D01*
X126325000Y-61050000D01*
X126225000Y-61150000D01*
X126223065Y-61475000D01*
X125675000Y-61475000D01*
X125675000Y-59475000D01*
X126185565Y-59475000D01*
X126193288Y-59553414D01*
X126216160Y-59628814D01*
X126253303Y-59698303D01*
X126303289Y-59759211D01*
X126316663Y-59770187D01*
X126290803Y-59801697D01*
X126253660Y-59871186D01*
X126230788Y-59946586D01*
X126223065Y-60025000D01*
X126225000Y-60350000D01*
X126325000Y-60450000D01*
X126912500Y-60450000D01*
X126912500Y-59725000D01*
X126875000Y-59687500D01*
X126875000Y-59050000D01*
X126287500Y-59050000D01*
X126187500Y-59150000D01*
X126185565Y-59475000D01*
X125675000Y-59475000D01*
X125675000Y-57475000D01*
X126185565Y-57475000D01*
X126193288Y-57553414D01*
X126216160Y-57628814D01*
X126253303Y-57698303D01*
X126295730Y-57750000D01*
X126253303Y-57801697D01*
X126216160Y-57871186D01*
X126193288Y-57946586D01*
X126185565Y-58025000D01*
X126187500Y-58350000D01*
X126287500Y-58450000D01*
X126875000Y-58450000D01*
X126875000Y-57050000D01*
X126287500Y-57050000D01*
X126187500Y-57150000D01*
X126185565Y-57475000D01*
X125675000Y-57475000D01*
X125675000Y-56025000D01*
X126185565Y-56025000D01*
X126187500Y-56350000D01*
X126287500Y-56450000D01*
X126875000Y-56450000D01*
X126875000Y-55725000D01*
X126775000Y-55625000D01*
X126587500Y-55623065D01*
X126509086Y-55630788D01*
X126433686Y-55653660D01*
X126364197Y-55690803D01*
X126303289Y-55740789D01*
X126253303Y-55801697D01*
X126216160Y-55871186D01*
X126193288Y-55946586D01*
X126185565Y-56025000D01*
X125675000Y-56025000D01*
X125675000Y-53113604D01*
X127686364Y-53113604D01*
X127694087Y-53192018D01*
X127716959Y-53267418D01*
X127754102Y-53336907D01*
X127804088Y-53397815D01*
X127938039Y-53529029D01*
X128079461Y-53529029D01*
X128592113Y-53016377D01*
X128176688Y-52600952D01*
X128035266Y-52600952D01*
X127804088Y-52829393D01*
X127754102Y-52890301D01*
X127716959Y-52959790D01*
X127694087Y-53035190D01*
X127686364Y-53113604D01*
X125675000Y-53113604D01*
X125675000Y-52035266D01*
X128600952Y-52035266D01*
X128600952Y-52176688D01*
X129016377Y-52592113D01*
X129529029Y-52079461D01*
X129529029Y-51938039D01*
X129397815Y-51804088D01*
X129336907Y-51754102D01*
X129267418Y-51716959D01*
X129192018Y-51694087D01*
X129113604Y-51686364D01*
X129035190Y-51694087D01*
X128959790Y-51716959D01*
X128890301Y-51754102D01*
X128829393Y-51804088D01*
X128600952Y-52035266D01*
X125675000Y-52035266D01*
X125675000Y-45770787D01*
X125678428Y-45735826D01*
X125682543Y-45722198D01*
X125689229Y-45709623D01*
X125698225Y-45698592D01*
X125709203Y-45689511D01*
X125721730Y-45682737D01*
X125735326Y-45678528D01*
X125768897Y-45675000D01*
X127150000Y-45675000D01*
X127150000Y-48750000D01*
%TA.AperFunction,Conductor*%
D20*
G36*
X127150000Y-48750000D02*
G01*
X127151921Y-48769509D01*
X127157612Y-48788268D01*
X127166853Y-48805557D01*
X127179289Y-48820711D01*
X127194443Y-48833147D01*
X127211732Y-48842388D01*
X127230491Y-48848079D01*
X127250000Y-48850000D01*
X127807876Y-48850000D01*
X127871186Y-48883840D01*
X127946586Y-48906712D01*
X128025000Y-48914435D01*
X128350000Y-48912500D01*
X128412500Y-48850000D01*
X129087500Y-48850000D01*
X129150000Y-48912500D01*
X129475000Y-48914435D01*
X129553414Y-48906712D01*
X129628814Y-48883840D01*
X129692124Y-48850000D01*
X129760028Y-48850000D01*
X129801697Y-48884197D01*
X129871186Y-48921340D01*
X129946586Y-48944212D01*
X130025000Y-48951935D01*
X130350000Y-48950000D01*
X130450000Y-48850000D01*
X131050000Y-48850000D01*
X131150000Y-48950000D01*
X131475000Y-48951935D01*
X131553414Y-48944212D01*
X131628814Y-48921340D01*
X131698303Y-48884197D01*
X131739972Y-48850000D01*
X131760028Y-48850000D01*
X131801697Y-48884197D01*
X131871186Y-48921340D01*
X131946586Y-48944212D01*
X132025000Y-48951935D01*
X132350000Y-48950000D01*
X132449998Y-48850002D01*
X132449998Y-48950000D01*
X132650000Y-48950000D01*
X132650000Y-49048065D01*
X132275000Y-49048065D01*
X132147814Y-49060592D01*
X132025515Y-49097691D01*
X131912804Y-49157936D01*
X131814012Y-49239012D01*
X131750000Y-49317011D01*
X131685988Y-49239012D01*
X131587196Y-49157936D01*
X131474485Y-49097691D01*
X131352186Y-49060592D01*
X131225000Y-49048065D01*
X130275000Y-49048065D01*
X130147814Y-49060592D01*
X130025515Y-49097691D01*
X129912804Y-49157936D01*
X129814012Y-49239012D01*
X129765388Y-49298261D01*
X129685988Y-49201512D01*
X129587196Y-49120436D01*
X129474485Y-49060191D01*
X129352186Y-49023092D01*
X129225000Y-49010565D01*
X128275000Y-49010565D01*
X128147814Y-49023092D01*
X128025515Y-49060191D01*
X127912804Y-49120436D01*
X127814012Y-49201512D01*
X127732936Y-49300304D01*
X127672691Y-49413015D01*
X127635592Y-49535314D01*
X127623589Y-49657182D01*
X127224198Y-50056574D01*
X127168431Y-50079673D01*
X127053781Y-50156279D01*
X126956279Y-50253781D01*
X126879673Y-50368431D01*
X126826906Y-50495823D01*
X126800005Y-50631061D01*
X126800005Y-50768949D01*
X126826906Y-50904187D01*
X126879673Y-51031579D01*
X126956279Y-51146229D01*
X127053781Y-51243731D01*
X127168431Y-51320337D01*
X127295823Y-51373104D01*
X127431061Y-51400005D01*
X127568949Y-51400005D01*
X127704187Y-51373104D01*
X127831579Y-51320337D01*
X127946229Y-51243731D01*
X128043731Y-51146229D01*
X128120337Y-51031579D01*
X128143436Y-50975812D01*
X128143614Y-50975634D01*
X128147814Y-50976908D01*
X128275000Y-50989435D01*
X129225000Y-50989435D01*
X129352186Y-50976908D01*
X129474485Y-50939809D01*
X129587196Y-50879564D01*
X129685988Y-50798488D01*
X129734612Y-50739239D01*
X129814012Y-50835988D01*
X129912804Y-50917064D01*
X130025515Y-50977309D01*
X130147814Y-51014408D01*
X130275000Y-51026935D01*
X130980603Y-51026935D01*
X130047005Y-51960534D01*
X130026974Y-51976973D01*
X130010535Y-51997004D01*
X129961367Y-52056915D01*
X129912617Y-52148120D01*
X129882597Y-52247083D01*
X129878539Y-52288284D01*
X129875000Y-52324212D01*
X129875000Y-52324220D01*
X129872461Y-52350000D01*
X129875000Y-52375780D01*
X129875000Y-52582018D01*
X129440641Y-53016377D01*
X129454784Y-53030520D01*
X129030520Y-53454784D01*
X129016377Y-53440641D01*
X128503725Y-53953293D01*
X128503725Y-54094715D01*
X128582453Y-54175085D01*
X127847005Y-54910534D01*
X127826974Y-54926973D01*
X127810535Y-54947004D01*
X127761367Y-55006915D01*
X127712617Y-55098120D01*
X127682597Y-55197083D01*
X127672461Y-55300000D01*
X127675001Y-55325790D01*
X127675001Y-55623968D01*
X127575000Y-55625000D01*
X127475000Y-55725000D01*
X127475000Y-56450000D01*
X127495000Y-56450000D01*
X127495000Y-57050000D01*
X127475000Y-57050000D01*
X127475000Y-58450000D01*
X127495000Y-58450000D01*
X127495000Y-59050000D01*
X127475000Y-59050000D01*
X127475000Y-59775000D01*
X127512500Y-59812500D01*
X127512500Y-60450000D01*
X128100000Y-60450000D01*
X128200000Y-60350000D01*
X128200932Y-60193394D01*
X128298065Y-60290526D01*
X128298065Y-61225000D01*
X128310592Y-61352186D01*
X128347691Y-61474485D01*
X128407936Y-61587196D01*
X128489012Y-61685988D01*
X128567011Y-61750000D01*
X128489012Y-61814012D01*
X128407936Y-61912804D01*
X128347691Y-62025515D01*
X128310592Y-62147814D01*
X128298065Y-62275000D01*
X128298065Y-63225000D01*
X128310592Y-63352186D01*
X128347691Y-63474485D01*
X128407936Y-63587196D01*
X128489012Y-63685988D01*
X128548261Y-63734612D01*
X128451512Y-63814012D01*
X128370436Y-63912804D01*
X128310191Y-64025515D01*
X128273092Y-64147814D01*
X128260565Y-64275000D01*
X128260565Y-65225000D01*
X128273092Y-65352186D01*
X128310191Y-65474485D01*
X128370436Y-65587196D01*
X128451512Y-65685988D01*
X128550304Y-65767064D01*
X128663015Y-65827309D01*
X128785314Y-65864408D01*
X128912500Y-65876935D01*
X129587500Y-65876935D01*
X129714686Y-65864408D01*
X129836985Y-65827309D01*
X129949696Y-65767064D01*
X129975000Y-65746297D01*
X129975001Y-67344399D01*
X129939211Y-67300789D01*
X129878303Y-67250803D01*
X129808814Y-67213660D01*
X129733414Y-67190788D01*
X129655000Y-67183065D01*
X129655000Y-67185000D01*
X129555000Y-67285000D01*
X129555000Y-67860000D01*
X129955000Y-67860000D01*
X130047625Y-67767375D01*
X130061367Y-67793085D01*
X130074500Y-67809087D01*
X130126974Y-67873027D01*
X130147004Y-67889466D01*
X130355603Y-68098065D01*
X130340000Y-68098065D01*
X130261586Y-68105788D01*
X130250000Y-68109303D01*
X130238414Y-68105788D01*
X130160000Y-68098065D01*
X130160000Y-68100000D01*
X130060000Y-68200000D01*
X130060000Y-68212333D01*
X130055789Y-68215789D01*
X130005803Y-68276697D01*
X129968660Y-68346186D01*
X129945788Y-68421586D01*
X129942005Y-68460000D01*
X129940000Y-68460000D01*
X129940000Y-68200000D01*
X129840000Y-68100000D01*
X129840000Y-68098065D01*
X129761586Y-68105788D01*
X129686186Y-68128660D01*
X129616697Y-68165803D01*
X129555789Y-68215789D01*
X129505803Y-68276697D01*
X129468660Y-68346186D01*
X129445788Y-68421586D01*
X129440035Y-68480000D01*
X129105000Y-68480000D01*
X129105000Y-68460000D01*
X128705000Y-68460000D01*
X128605000Y-68560000D01*
X128604834Y-68575000D01*
X128425947Y-68575000D01*
X127435197Y-67585000D01*
X128603065Y-67585000D01*
X128605000Y-67760000D01*
X128705000Y-67860000D01*
X129105000Y-67860000D01*
X129105000Y-67285000D01*
X129005000Y-67185000D01*
X129005000Y-67183065D01*
X128926586Y-67190788D01*
X128851186Y-67213660D01*
X128781697Y-67250803D01*
X128720789Y-67300789D01*
X128670803Y-67361697D01*
X128633660Y-67431186D01*
X128610788Y-67506586D01*
X128603065Y-67585000D01*
X127435197Y-67585000D01*
X125814133Y-65965164D01*
X125748526Y-65885293D01*
X125709515Y-65812538D01*
X125685382Y-65733601D01*
X125675000Y-65631393D01*
X125675000Y-65475000D01*
X126185565Y-65475000D01*
X126193288Y-65553414D01*
X126216160Y-65628814D01*
X126253303Y-65698303D01*
X126303289Y-65759211D01*
X126364197Y-65809197D01*
X126433686Y-65846340D01*
X126509086Y-65869212D01*
X126587500Y-65876935D01*
X126775000Y-65875000D01*
X126875000Y-65775000D01*
X126875000Y-65050000D01*
X127475000Y-65050000D01*
X127475000Y-65775000D01*
X127575000Y-65875000D01*
X127762500Y-65876935D01*
X127840914Y-65869212D01*
X127916314Y-65846340D01*
X127985803Y-65809197D01*
X128046711Y-65759211D01*
X128096697Y-65698303D01*
X128133840Y-65628814D01*
X128156712Y-65553414D01*
X128164435Y-65475000D01*
X128162500Y-65150000D01*
X128062500Y-65050000D01*
X127475000Y-65050000D01*
X126875000Y-65050000D01*
X126287500Y-65050000D01*
X126187500Y-65150000D01*
X126185565Y-65475000D01*
X125675000Y-65475000D01*
X125675000Y-64025000D01*
X126185565Y-64025000D01*
X126187500Y-64350000D01*
X126287500Y-64450000D01*
X126875000Y-64450000D01*
X126875000Y-63812500D01*
X126912500Y-63775000D01*
X126912500Y-63725000D01*
X127475000Y-63725000D01*
X127475000Y-64450000D01*
X128062500Y-64450000D01*
X128162500Y-64350000D01*
X128164435Y-64025000D01*
X128156712Y-63946586D01*
X128133840Y-63871186D01*
X128096697Y-63801697D01*
X128070837Y-63770187D01*
X128084211Y-63759211D01*
X128134197Y-63698303D01*
X128171340Y-63628814D01*
X128194212Y-63553414D01*
X128201935Y-63475000D01*
X128200000Y-63150000D01*
X128100000Y-63050000D01*
X127512500Y-63050000D01*
X127512500Y-63687500D01*
X127475000Y-63725000D01*
X126912500Y-63725000D01*
X126912500Y-63050000D01*
X126325000Y-63050000D01*
X126225000Y-63150000D01*
X126223065Y-63475000D01*
X126230788Y-63553414D01*
X126253660Y-63628814D01*
X126290803Y-63698303D01*
X126316663Y-63729813D01*
X126303289Y-63740789D01*
X126253303Y-63801697D01*
X126216160Y-63871186D01*
X126193288Y-63946586D01*
X126185565Y-64025000D01*
X125675000Y-64025000D01*
X125675000Y-61475000D01*
X126223065Y-61475000D01*
X126230788Y-61553414D01*
X126253660Y-61628814D01*
X126290803Y-61698303D01*
X126333230Y-61750000D01*
X126290803Y-61801697D01*
X126253660Y-61871186D01*
X126230788Y-61946586D01*
X126223065Y-62025000D01*
X126225000Y-62350000D01*
X126325000Y-62450000D01*
X126912500Y-62450000D01*
X126912500Y-61050000D01*
X127512500Y-61050000D01*
X127512500Y-62450000D01*
X128100000Y-62450000D01*
X128200000Y-62350000D01*
X128201935Y-62025000D01*
X128194212Y-61946586D01*
X128171340Y-61871186D01*
X128134197Y-61801697D01*
X128091770Y-61750000D01*
X128134197Y-61698303D01*
X128171340Y-61628814D01*
X128194212Y-61553414D01*
X128201935Y-61475000D01*
X128200000Y-61150000D01*
X128100000Y-61050000D01*
X127512500Y-61050000D01*
X126912500Y-61050000D01*
X126325000Y-61050000D01*
X126225000Y-61150000D01*
X126223065Y-61475000D01*
X125675000Y-61475000D01*
X125675000Y-59475000D01*
X126185565Y-59475000D01*
X126193288Y-59553414D01*
X126216160Y-59628814D01*
X126253303Y-59698303D01*
X126303289Y-59759211D01*
X126316663Y-59770187D01*
X126290803Y-59801697D01*
X126253660Y-59871186D01*
X126230788Y-59946586D01*
X126223065Y-60025000D01*
X126225000Y-60350000D01*
X126325000Y-60450000D01*
X126912500Y-60450000D01*
X126912500Y-59725000D01*
X126875000Y-59687500D01*
X126875000Y-59050000D01*
X126287500Y-59050000D01*
X126187500Y-59150000D01*
X126185565Y-59475000D01*
X125675000Y-59475000D01*
X125675000Y-57475000D01*
X126185565Y-57475000D01*
X126193288Y-57553414D01*
X126216160Y-57628814D01*
X126253303Y-57698303D01*
X126295730Y-57750000D01*
X126253303Y-57801697D01*
X126216160Y-57871186D01*
X126193288Y-57946586D01*
X126185565Y-58025000D01*
X126187500Y-58350000D01*
X126287500Y-58450000D01*
X126875000Y-58450000D01*
X126875000Y-57050000D01*
X126287500Y-57050000D01*
X126187500Y-57150000D01*
X126185565Y-57475000D01*
X125675000Y-57475000D01*
X125675000Y-56025000D01*
X126185565Y-56025000D01*
X126187500Y-56350000D01*
X126287500Y-56450000D01*
X126875000Y-56450000D01*
X126875000Y-55725000D01*
X126775000Y-55625000D01*
X126587500Y-55623065D01*
X126509086Y-55630788D01*
X126433686Y-55653660D01*
X126364197Y-55690803D01*
X126303289Y-55740789D01*
X126253303Y-55801697D01*
X126216160Y-55871186D01*
X126193288Y-55946586D01*
X126185565Y-56025000D01*
X125675000Y-56025000D01*
X125675000Y-53113604D01*
X127686364Y-53113604D01*
X127694087Y-53192018D01*
X127716959Y-53267418D01*
X127754102Y-53336907D01*
X127804088Y-53397815D01*
X127938039Y-53529029D01*
X128079461Y-53529029D01*
X128592113Y-53016377D01*
X128176688Y-52600952D01*
X128035266Y-52600952D01*
X127804088Y-52829393D01*
X127754102Y-52890301D01*
X127716959Y-52959790D01*
X127694087Y-53035190D01*
X127686364Y-53113604D01*
X125675000Y-53113604D01*
X125675000Y-52035266D01*
X128600952Y-52035266D01*
X128600952Y-52176688D01*
X129016377Y-52592113D01*
X129529029Y-52079461D01*
X129529029Y-51938039D01*
X129397815Y-51804088D01*
X129336907Y-51754102D01*
X129267418Y-51716959D01*
X129192018Y-51694087D01*
X129113604Y-51686364D01*
X129035190Y-51694087D01*
X128959790Y-51716959D01*
X128890301Y-51754102D01*
X128829393Y-51804088D01*
X128600952Y-52035266D01*
X125675000Y-52035266D01*
X125675000Y-45770787D01*
X125678428Y-45735826D01*
X125682543Y-45722198D01*
X125689229Y-45709623D01*
X125698225Y-45698592D01*
X125709203Y-45689511D01*
X125721730Y-45682737D01*
X125735326Y-45678528D01*
X125768897Y-45675000D01*
X127150000Y-45675000D01*
X127150000Y-48750000D01*
G37*
%TD.AperFunction*%
D19*
X135111024Y-61873990D02*
X135142260Y-61899625D01*
X135129697Y-61918426D01*
X135076930Y-62045818D01*
X135050029Y-62181056D01*
X135050029Y-62318944D01*
X135076930Y-62454182D01*
X135129697Y-62581574D01*
X135206303Y-62696224D01*
X135303805Y-62793726D01*
X135418455Y-62870332D01*
X135545847Y-62923099D01*
X135681085Y-62950000D01*
X135818973Y-62950000D01*
X135954211Y-62923099D01*
X136081603Y-62870332D01*
X136196253Y-62793726D01*
X136199078Y-62790901D01*
X136228319Y-62810439D01*
X136355711Y-62863206D01*
X136490949Y-62890107D01*
X136628837Y-62890107D01*
X136764075Y-62863206D01*
X136891467Y-62810439D01*
X137006117Y-62733833D01*
X137007649Y-62732301D01*
X137076195Y-62778101D01*
X137203587Y-62830868D01*
X137338825Y-62857769D01*
X137476713Y-62857769D01*
X137611951Y-62830868D01*
X137739343Y-62778101D01*
X137853993Y-62701495D01*
X137951495Y-62603993D01*
X137975000Y-62568815D01*
X137975000Y-65857537D01*
X137351935Y-66480603D01*
X137351935Y-66399999D01*
X137339408Y-66272813D01*
X137302309Y-66150515D01*
X137242064Y-66037804D01*
X137160988Y-65939012D01*
X137062196Y-65857936D01*
X136949485Y-65797691D01*
X136827187Y-65760592D01*
X136724528Y-65750481D01*
X136950000Y-65751935D01*
X137028414Y-65744212D01*
X137103814Y-65721340D01*
X137173303Y-65684197D01*
X137234211Y-65634211D01*
X137284197Y-65573303D01*
X137321340Y-65503814D01*
X137344212Y-65428414D01*
X137351935Y-65350000D01*
X137350000Y-65150000D01*
X137250000Y-65050000D01*
X136550000Y-65050000D01*
X136550000Y-65070000D01*
X135950000Y-65070000D01*
X135950000Y-65050000D01*
X135930000Y-65050000D01*
X135930000Y-64450000D01*
X135950000Y-64450000D01*
X135950000Y-63850000D01*
X136550000Y-63850000D01*
X136550000Y-64450000D01*
X137250000Y-64450000D01*
X137350000Y-64350000D01*
X137351935Y-64150000D01*
X137344212Y-64071586D01*
X137321340Y-63996186D01*
X137284197Y-63926697D01*
X137234211Y-63865789D01*
X137173303Y-63815803D01*
X137103814Y-63778660D01*
X137028414Y-63755788D01*
X136950000Y-63748065D01*
X136650000Y-63750000D01*
X136550000Y-63850000D01*
X135950000Y-63850000D01*
X135850000Y-63750000D01*
X135550000Y-63748065D01*
X135471586Y-63755788D01*
X135441317Y-63764970D01*
X135417746Y-63720871D01*
X135355264Y-63644736D01*
X135336187Y-63629080D01*
X133550011Y-61842906D01*
X133550011Y-61684916D01*
X133562919Y-61672008D01*
X133586018Y-61715222D01*
X133643777Y-61785601D01*
X133732166Y-61873990D01*
X133802545Y-61931749D01*
X133882839Y-61974667D01*
X133969964Y-62001096D01*
X134060571Y-62010020D01*
X134151178Y-62001096D01*
X134238303Y-61974667D01*
X134318597Y-61931749D01*
X134388976Y-61873990D01*
X134750000Y-61512966D01*
X135111024Y-61873990D01*
%TA.AperFunction,Conductor*%
D20*
G36*
X135111024Y-61873990D02*
G01*
X135142260Y-61899625D01*
X135129697Y-61918426D01*
X135076930Y-62045818D01*
X135050029Y-62181056D01*
X135050029Y-62318944D01*
X135076930Y-62454182D01*
X135129697Y-62581574D01*
X135206303Y-62696224D01*
X135303805Y-62793726D01*
X135418455Y-62870332D01*
X135545847Y-62923099D01*
X135681085Y-62950000D01*
X135818973Y-62950000D01*
X135954211Y-62923099D01*
X136081603Y-62870332D01*
X136196253Y-62793726D01*
X136199078Y-62790901D01*
X136228319Y-62810439D01*
X136355711Y-62863206D01*
X136490949Y-62890107D01*
X136628837Y-62890107D01*
X136764075Y-62863206D01*
X136891467Y-62810439D01*
X137006117Y-62733833D01*
X137007649Y-62732301D01*
X137076195Y-62778101D01*
X137203587Y-62830868D01*
X137338825Y-62857769D01*
X137476713Y-62857769D01*
X137611951Y-62830868D01*
X137739343Y-62778101D01*
X137853993Y-62701495D01*
X137951495Y-62603993D01*
X137975000Y-62568815D01*
X137975000Y-65857537D01*
X137351935Y-66480603D01*
X137351935Y-66399999D01*
X137339408Y-66272813D01*
X137302309Y-66150515D01*
X137242064Y-66037804D01*
X137160988Y-65939012D01*
X137062196Y-65857936D01*
X136949485Y-65797691D01*
X136827187Y-65760592D01*
X136724528Y-65750481D01*
X136950000Y-65751935D01*
X137028414Y-65744212D01*
X137103814Y-65721340D01*
X137173303Y-65684197D01*
X137234211Y-65634211D01*
X137284197Y-65573303D01*
X137321340Y-65503814D01*
X137344212Y-65428414D01*
X137351935Y-65350000D01*
X137350000Y-65150000D01*
X137250000Y-65050000D01*
X136550000Y-65050000D01*
X136550000Y-65070000D01*
X135950000Y-65070000D01*
X135950000Y-65050000D01*
X135930000Y-65050000D01*
X135930000Y-64450000D01*
X135950000Y-64450000D01*
X135950000Y-63850000D01*
X136550000Y-63850000D01*
X136550000Y-64450000D01*
X137250000Y-64450000D01*
X137350000Y-64350000D01*
X137351935Y-64150000D01*
X137344212Y-64071586D01*
X137321340Y-63996186D01*
X137284197Y-63926697D01*
X137234211Y-63865789D01*
X137173303Y-63815803D01*
X137103814Y-63778660D01*
X137028414Y-63755788D01*
X136950000Y-63748065D01*
X136650000Y-63750000D01*
X136550000Y-63850000D01*
X135950000Y-63850000D01*
X135850000Y-63750000D01*
X135550000Y-63748065D01*
X135471586Y-63755788D01*
X135441317Y-63764970D01*
X135417746Y-63720871D01*
X135355264Y-63644736D01*
X135336187Y-63629080D01*
X133550011Y-61842906D01*
X133550011Y-61684916D01*
X133562919Y-61672008D01*
X133586018Y-61715222D01*
X133643777Y-61785601D01*
X133732166Y-61873990D01*
X133802545Y-61931749D01*
X133882839Y-61974667D01*
X133969964Y-62001096D01*
X134060571Y-62010020D01*
X134151178Y-62001096D01*
X134238303Y-61974667D01*
X134318597Y-61931749D01*
X134388976Y-61873990D01*
X134750000Y-61512966D01*
X135111024Y-61873990D01*
G37*
%TD.AperFunction*%
D19*
X134272747Y-63979853D02*
X134250000Y-63980000D01*
X134150000Y-64080000D01*
X134150000Y-64680000D01*
X134170000Y-64680000D01*
X134170000Y-65280000D01*
X134150000Y-65280000D01*
X134150000Y-65300000D01*
X133550000Y-65300000D01*
X133550000Y-65280000D01*
X133530000Y-65280000D01*
X133530000Y-64680000D01*
X133550000Y-64680000D01*
X133550000Y-64080000D01*
X133450000Y-63980000D01*
X133250000Y-63978710D01*
X133250000Y-63574559D01*
X133252419Y-63549999D01*
X133242765Y-63451982D01*
X133214175Y-63357734D01*
X133214175Y-63357733D01*
X133167746Y-63270871D01*
X133105264Y-63194736D01*
X133100000Y-63190416D01*
X133100000Y-62807105D01*
X134272747Y-63979853D01*
%TA.AperFunction,Conductor*%
D20*
G36*
X134272747Y-63979853D02*
G01*
X134250000Y-63980000D01*
X134150000Y-64080000D01*
X134150000Y-64680000D01*
X134170000Y-64680000D01*
X134170000Y-65280000D01*
X134150000Y-65280000D01*
X134150000Y-65300000D01*
X133550000Y-65300000D01*
X133550000Y-65280000D01*
X133530000Y-65280000D01*
X133530000Y-64680000D01*
X133550000Y-64680000D01*
X133550000Y-64080000D01*
X133450000Y-63980000D01*
X133250000Y-63978710D01*
X133250000Y-63574559D01*
X133252419Y-63549999D01*
X133242765Y-63451982D01*
X133214175Y-63357734D01*
X133214175Y-63357733D01*
X133167746Y-63270871D01*
X133105264Y-63194736D01*
X133100000Y-63190416D01*
X133100000Y-62807105D01*
X134272747Y-63979853D01*
G37*
%TD.AperFunction*%
D19*
X132100001Y-63375430D02*
X132097581Y-63400000D01*
X132107235Y-63498017D01*
X132123004Y-63549999D01*
X132135826Y-63592267D01*
X132182255Y-63679129D01*
X132244737Y-63755264D01*
X132250000Y-63759583D01*
X132250000Y-63898065D01*
X130950000Y-63898065D01*
X130871586Y-63905788D01*
X130821472Y-63920990D01*
X131842458Y-62900004D01*
X131868944Y-62900004D01*
X132004182Y-62873103D01*
X132100001Y-62833414D01*
X132100001Y-63375430D01*
%TA.AperFunction,Conductor*%
D20*
G36*
X132100001Y-63375430D02*
G01*
X132097581Y-63400000D01*
X132107235Y-63498017D01*
X132123004Y-63549999D01*
X132135826Y-63592267D01*
X132182255Y-63679129D01*
X132244737Y-63755264D01*
X132250000Y-63759583D01*
X132250000Y-63898065D01*
X130950000Y-63898065D01*
X130871586Y-63905788D01*
X130821472Y-63920990D01*
X131842458Y-62900004D01*
X131868944Y-62900004D01*
X132004182Y-62873103D01*
X132100001Y-62833414D01*
X132100001Y-63375430D01*
G37*
%TD.AperFunction*%
D19*
X132100000Y-61566594D02*
X132004182Y-61526905D01*
X131868944Y-61500004D01*
X131731056Y-61500004D01*
X131595818Y-61526905D01*
X131468426Y-61579672D01*
X131353776Y-61656278D01*
X131256274Y-61753780D01*
X131179668Y-61868430D01*
X131126901Y-61995822D01*
X131100000Y-62131060D01*
X131100000Y-62157538D01*
X130276935Y-62980603D01*
X130276935Y-62275000D01*
X130264408Y-62147814D01*
X130227309Y-62025515D01*
X130167064Y-61912804D01*
X130085988Y-61814012D01*
X130007989Y-61750000D01*
X130085988Y-61685988D01*
X130167064Y-61587196D01*
X130227309Y-61474485D01*
X130264408Y-61352186D01*
X130272010Y-61275000D01*
X131974212Y-61275000D01*
X132000000Y-61277540D01*
X132025788Y-61275000D01*
X132100000Y-61267690D01*
X132100000Y-61566594D01*
%TA.AperFunction,Conductor*%
D20*
G36*
X132100000Y-61566594D02*
G01*
X132004182Y-61526905D01*
X131868944Y-61500004D01*
X131731056Y-61500004D01*
X131595818Y-61526905D01*
X131468426Y-61579672D01*
X131353776Y-61656278D01*
X131256274Y-61753780D01*
X131179668Y-61868430D01*
X131126901Y-61995822D01*
X131100000Y-62131060D01*
X131100000Y-62157538D01*
X130276935Y-62980603D01*
X130276935Y-62275000D01*
X130264408Y-62147814D01*
X130227309Y-62025515D01*
X130167064Y-61912804D01*
X130085988Y-61814012D01*
X130007989Y-61750000D01*
X130085988Y-61685988D01*
X130167064Y-61587196D01*
X130227309Y-61474485D01*
X130264408Y-61352186D01*
X130272010Y-61275000D01*
X131974212Y-61275000D01*
X132000000Y-61277540D01*
X132025788Y-61275000D01*
X132100000Y-61267690D01*
X132100000Y-61566594D01*
G37*
%TD.AperFunction*%
D19*
X137975000Y-61746724D02*
X137951495Y-61711545D01*
X137932769Y-61692819D01*
X137932769Y-59896773D01*
X137935308Y-59870993D01*
X137932769Y-59845213D01*
X137932769Y-59845206D01*
X137925172Y-59768076D01*
X137895152Y-59669113D01*
X137846402Y-59577908D01*
X137780796Y-59497967D01*
X137760764Y-59481527D01*
X137412381Y-59133145D01*
X137395938Y-59113109D01*
X137315997Y-59047503D01*
X137304121Y-59041155D01*
X137262966Y-59000000D01*
X137623990Y-58638976D01*
X137636520Y-58623709D01*
X137975001Y-58285228D01*
X137975000Y-61746724D01*
%TA.AperFunction,Conductor*%
D20*
G36*
X137975000Y-61746724D02*
G01*
X137951495Y-61711545D01*
X137932769Y-61692819D01*
X137932769Y-59896773D01*
X137935308Y-59870993D01*
X137932769Y-59845213D01*
X137932769Y-59845206D01*
X137925172Y-59768076D01*
X137895152Y-59669113D01*
X137846402Y-59577908D01*
X137780796Y-59497967D01*
X137760764Y-59481527D01*
X137412381Y-59133145D01*
X137395938Y-59113109D01*
X137315997Y-59047503D01*
X137304121Y-59041155D01*
X137262966Y-59000000D01*
X137623990Y-58638976D01*
X137636520Y-58623709D01*
X137975001Y-58285228D01*
X137975000Y-61746724D01*
G37*
%TD.AperFunction*%
D19*
X131876010Y-59361024D02*
X131818251Y-59431403D01*
X131809197Y-59448341D01*
X131647005Y-59610534D01*
X131626974Y-59626973D01*
X131605073Y-59653660D01*
X131561367Y-59706915D01*
X131512617Y-59798120D01*
X131482597Y-59897083D01*
X131479736Y-59926136D01*
X131475000Y-59974212D01*
X131475000Y-59974220D01*
X131472461Y-60000000D01*
X131475000Y-60025780D01*
X131475000Y-60225000D01*
X130272010Y-60225000D01*
X130264408Y-60147814D01*
X130227309Y-60025515D01*
X130167064Y-59912804D01*
X130085988Y-59814012D01*
X129989239Y-59734612D01*
X130048488Y-59685988D01*
X130129564Y-59587196D01*
X130189809Y-59474485D01*
X130226908Y-59352186D01*
X130234510Y-59275000D01*
X131962034Y-59275000D01*
X131876010Y-59361024D01*
%TA.AperFunction,Conductor*%
D20*
G36*
X131876010Y-59361024D02*
G01*
X131818251Y-59431403D01*
X131809197Y-59448341D01*
X131647005Y-59610534D01*
X131626974Y-59626973D01*
X131605073Y-59653660D01*
X131561367Y-59706915D01*
X131512617Y-59798120D01*
X131482597Y-59897083D01*
X131479736Y-59926136D01*
X131475000Y-59974212D01*
X131475000Y-59974220D01*
X131472461Y-60000000D01*
X131475000Y-60025780D01*
X131475000Y-60225000D01*
X130272010Y-60225000D01*
X130264408Y-60147814D01*
X130227309Y-60025515D01*
X130167064Y-59912804D01*
X130085988Y-59814012D01*
X129989239Y-59734612D01*
X130048488Y-59685988D01*
X130129564Y-59587196D01*
X130189809Y-59474485D01*
X130226908Y-59352186D01*
X130234510Y-59275000D01*
X131962034Y-59275000D01*
X131876010Y-59361024D01*
G37*
%TD.AperFunction*%
D19*
X135188407Y-58985858D02*
X135174264Y-59000000D01*
X135188407Y-59014143D01*
X134764143Y-59438407D01*
X134750000Y-59424264D01*
X134735858Y-59438407D01*
X134311594Y-59014143D01*
X134325736Y-59000000D01*
X134311594Y-58985858D01*
X134735858Y-58561594D01*
X134750000Y-58575736D01*
X134764143Y-58561594D01*
X135188407Y-58985858D01*
%TA.AperFunction,Conductor*%
D20*
G36*
X135188407Y-58985858D02*
G01*
X135174264Y-59000000D01*
X135188407Y-59014143D01*
X134764143Y-59438407D01*
X134750000Y-59424264D01*
X134735858Y-59438407D01*
X134311594Y-59014143D01*
X134325736Y-59000000D01*
X134311594Y-58985858D01*
X134735858Y-58561594D01*
X134750000Y-58575736D01*
X134764143Y-58561594D01*
X135188407Y-58985858D01*
G37*
%TD.AperFunction*%
D19*
X131757936Y-54462196D02*
X131839012Y-54560988D01*
X131937804Y-54642064D01*
X132050515Y-54702309D01*
X132172813Y-54739408D01*
X132225000Y-54744548D01*
X132225000Y-54832539D01*
X132147005Y-54910534D01*
X132126974Y-54926973D01*
X132110535Y-54947004D01*
X132061367Y-55006915D01*
X132012617Y-55098120D01*
X131982597Y-55197083D01*
X131972461Y-55300000D01*
X131975001Y-55325790D01*
X131975000Y-57784880D01*
X131972461Y-57810660D01*
X131975000Y-57836440D01*
X131975000Y-57836447D01*
X131979432Y-57881440D01*
X131964399Y-57893777D01*
X131876010Y-57982166D01*
X131818251Y-58052545D01*
X131775333Y-58132839D01*
X131748904Y-58219964D01*
X131748408Y-58225000D01*
X130234510Y-58225000D01*
X130226908Y-58147814D01*
X130189809Y-58025515D01*
X130129564Y-57912804D01*
X130048488Y-57814012D01*
X129970489Y-57750000D01*
X130048488Y-57685988D01*
X130129564Y-57587196D01*
X130189809Y-57474485D01*
X130226908Y-57352186D01*
X130239435Y-57225000D01*
X130239435Y-56275000D01*
X130226908Y-56147814D01*
X130189809Y-56025515D01*
X130129564Y-55912804D01*
X130059299Y-55827185D01*
X130205287Y-55681198D01*
X130259210Y-55697555D01*
X130386396Y-55710082D01*
X130513582Y-55697555D01*
X130635881Y-55660456D01*
X130748592Y-55600211D01*
X130847384Y-55519135D01*
X131519135Y-54847384D01*
X131600211Y-54748592D01*
X131660456Y-54635881D01*
X131697555Y-54513582D01*
X131710082Y-54386396D01*
X131708424Y-54369566D01*
X131757936Y-54462196D01*
%TA.AperFunction,Conductor*%
D20*
G36*
X131757936Y-54462196D02*
G01*
X131839012Y-54560988D01*
X131937804Y-54642064D01*
X132050515Y-54702309D01*
X132172813Y-54739408D01*
X132225000Y-54744548D01*
X132225000Y-54832539D01*
X132147005Y-54910534D01*
X132126974Y-54926973D01*
X132110535Y-54947004D01*
X132061367Y-55006915D01*
X132012617Y-55098120D01*
X131982597Y-55197083D01*
X131972461Y-55300000D01*
X131975001Y-55325790D01*
X131975000Y-57784880D01*
X131972461Y-57810660D01*
X131975000Y-57836440D01*
X131975000Y-57836447D01*
X131979432Y-57881440D01*
X131964399Y-57893777D01*
X131876010Y-57982166D01*
X131818251Y-58052545D01*
X131775333Y-58132839D01*
X131748904Y-58219964D01*
X131748408Y-58225000D01*
X130234510Y-58225000D01*
X130226908Y-58147814D01*
X130189809Y-58025515D01*
X130129564Y-57912804D01*
X130048488Y-57814012D01*
X129970489Y-57750000D01*
X130048488Y-57685988D01*
X130129564Y-57587196D01*
X130189809Y-57474485D01*
X130226908Y-57352186D01*
X130239435Y-57225000D01*
X130239435Y-56275000D01*
X130226908Y-56147814D01*
X130189809Y-56025515D01*
X130129564Y-55912804D01*
X130059299Y-55827185D01*
X130205287Y-55681198D01*
X130259210Y-55697555D01*
X130386396Y-55710082D01*
X130513582Y-55697555D01*
X130635881Y-55660456D01*
X130748592Y-55600211D01*
X130847384Y-55519135D01*
X131519135Y-54847384D01*
X131600211Y-54748592D01*
X131660456Y-54635881D01*
X131697555Y-54513582D01*
X131710082Y-54386396D01*
X131708424Y-54369566D01*
X131757936Y-54462196D01*
G37*
%TD.AperFunction*%
D19*
X137975001Y-53717463D02*
X137975001Y-55335524D01*
X137954182Y-55326901D01*
X137818944Y-55300000D01*
X137681056Y-55300000D01*
X137545818Y-55326901D01*
X137418426Y-55379668D01*
X137303776Y-55456274D01*
X137206274Y-55553776D01*
X137129668Y-55668426D01*
X137076901Y-55795818D01*
X137050000Y-55931056D01*
X137050000Y-56068944D01*
X137076901Y-56204182D01*
X137129668Y-56331574D01*
X137206274Y-56446224D01*
X137225001Y-56464951D01*
X137225000Y-57550305D01*
X137208564Y-57566741D01*
X137182047Y-57540224D01*
X137111668Y-57482465D01*
X137031374Y-57439547D01*
X137020775Y-57436332D01*
X137017560Y-57425732D01*
X136974642Y-57345438D01*
X136916883Y-57275059D01*
X136828494Y-57186670D01*
X136758115Y-57128911D01*
X136677821Y-57085993D01*
X136667222Y-57082778D01*
X136664007Y-57072179D01*
X136621089Y-56991885D01*
X136563330Y-56921506D01*
X136474941Y-56833117D01*
X136404562Y-56775358D01*
X136324268Y-56732440D01*
X136313668Y-56729225D01*
X136310453Y-56718626D01*
X136267535Y-56638332D01*
X136209776Y-56567953D01*
X136121387Y-56479564D01*
X136051008Y-56421805D01*
X135970714Y-56378887D01*
X135960115Y-56375672D01*
X135956900Y-56365072D01*
X135913982Y-56284778D01*
X135856223Y-56214399D01*
X135767834Y-56126010D01*
X135697455Y-56068251D01*
X135617161Y-56025333D01*
X135530036Y-55998904D01*
X135439429Y-55989980D01*
X135348822Y-55998904D01*
X135261697Y-56025333D01*
X135181403Y-56068251D01*
X135111024Y-56126010D01*
X134750000Y-56487034D01*
X134388976Y-56126010D01*
X134318597Y-56068251D01*
X134238303Y-56025333D01*
X134151178Y-55998904D01*
X134060571Y-55989980D01*
X133969964Y-55998904D01*
X133882839Y-56025333D01*
X133802545Y-56068251D01*
X133732166Y-56126010D01*
X133643777Y-56214399D01*
X133586018Y-56284778D01*
X133543100Y-56365072D01*
X133539885Y-56375672D01*
X133529286Y-56378887D01*
X133452565Y-56419895D01*
X133452565Y-55689896D01*
X133617462Y-55525000D01*
X136374220Y-55525000D01*
X136400000Y-55527539D01*
X136425780Y-55525000D01*
X136425788Y-55525000D01*
X136502918Y-55517403D01*
X136601881Y-55487383D01*
X136693086Y-55438633D01*
X136773027Y-55373027D01*
X136789470Y-55352991D01*
X137102995Y-55039467D01*
X137123027Y-55023027D01*
X137188633Y-54943086D01*
X137237383Y-54851881D01*
X137267403Y-54752918D01*
X137268161Y-54745222D01*
X137327187Y-54739408D01*
X137449485Y-54702309D01*
X137562196Y-54642064D01*
X137660988Y-54560988D01*
X137742064Y-54462196D01*
X137802309Y-54349485D01*
X137839408Y-54227187D01*
X137851935Y-54100001D01*
X137851935Y-53594397D01*
X137975001Y-53717463D01*
%TA.AperFunction,Conductor*%
D20*
G36*
X137975001Y-53717463D02*
G01*
X137975001Y-55335524D01*
X137954182Y-55326901D01*
X137818944Y-55300000D01*
X137681056Y-55300000D01*
X137545818Y-55326901D01*
X137418426Y-55379668D01*
X137303776Y-55456274D01*
X137206274Y-55553776D01*
X137129668Y-55668426D01*
X137076901Y-55795818D01*
X137050000Y-55931056D01*
X137050000Y-56068944D01*
X137076901Y-56204182D01*
X137129668Y-56331574D01*
X137206274Y-56446224D01*
X137225001Y-56464951D01*
X137225000Y-57550305D01*
X137208564Y-57566741D01*
X137182047Y-57540224D01*
X137111668Y-57482465D01*
X137031374Y-57439547D01*
X137020775Y-57436332D01*
X137017560Y-57425732D01*
X136974642Y-57345438D01*
X136916883Y-57275059D01*
X136828494Y-57186670D01*
X136758115Y-57128911D01*
X136677821Y-57085993D01*
X136667222Y-57082778D01*
X136664007Y-57072179D01*
X136621089Y-56991885D01*
X136563330Y-56921506D01*
X136474941Y-56833117D01*
X136404562Y-56775358D01*
X136324268Y-56732440D01*
X136313668Y-56729225D01*
X136310453Y-56718626D01*
X136267535Y-56638332D01*
X136209776Y-56567953D01*
X136121387Y-56479564D01*
X136051008Y-56421805D01*
X135970714Y-56378887D01*
X135960115Y-56375672D01*
X135956900Y-56365072D01*
X135913982Y-56284778D01*
X135856223Y-56214399D01*
X135767834Y-56126010D01*
X135697455Y-56068251D01*
X135617161Y-56025333D01*
X135530036Y-55998904D01*
X135439429Y-55989980D01*
X135348822Y-55998904D01*
X135261697Y-56025333D01*
X135181403Y-56068251D01*
X135111024Y-56126010D01*
X134750000Y-56487034D01*
X134388976Y-56126010D01*
X134318597Y-56068251D01*
X134238303Y-56025333D01*
X134151178Y-55998904D01*
X134060571Y-55989980D01*
X133969964Y-55998904D01*
X133882839Y-56025333D01*
X133802545Y-56068251D01*
X133732166Y-56126010D01*
X133643777Y-56214399D01*
X133586018Y-56284778D01*
X133543100Y-56365072D01*
X133539885Y-56375672D01*
X133529286Y-56378887D01*
X133452565Y-56419895D01*
X133452565Y-55689896D01*
X133617462Y-55525000D01*
X136374220Y-55525000D01*
X136400000Y-55527539D01*
X136425780Y-55525000D01*
X136425788Y-55525000D01*
X136502918Y-55517403D01*
X136601881Y-55487383D01*
X136693086Y-55438633D01*
X136773027Y-55373027D01*
X136789470Y-55352991D01*
X137102995Y-55039467D01*
X137123027Y-55023027D01*
X137188633Y-54943086D01*
X137237383Y-54851881D01*
X137267403Y-54752918D01*
X137268161Y-54745222D01*
X137327187Y-54739408D01*
X137449485Y-54702309D01*
X137562196Y-54642064D01*
X137660988Y-54560988D01*
X137742064Y-54462196D01*
X137802309Y-54349485D01*
X137839408Y-54227187D01*
X137851935Y-54100001D01*
X137851935Y-53594397D01*
X137975001Y-53717463D01*
G37*
%TD.AperFunction*%
D19*
X131650000Y-52050002D02*
X131749998Y-52050002D01*
X131650000Y-52150000D01*
X131648065Y-52350000D01*
X131648946Y-52358941D01*
X131626973Y-52376973D01*
X131610534Y-52397004D01*
X130925746Y-53081793D01*
X130925000Y-53074220D01*
X130925000Y-52567461D01*
X131650000Y-51842462D01*
X131650000Y-52050002D01*
%TA.AperFunction,Conductor*%
D20*
G36*
X131650000Y-52050002D02*
G01*
X131749998Y-52050002D01*
X131650000Y-52150000D01*
X131648065Y-52350000D01*
X131648946Y-52358941D01*
X131626973Y-52376973D01*
X131610534Y-52397004D01*
X130925746Y-53081793D01*
X130925000Y-53074220D01*
X130925000Y-52567461D01*
X131650000Y-51842462D01*
X131650000Y-52050002D01*
G37*
%TD.AperFunction*%
D19*
X133050000Y-51450000D02*
X133070000Y-51450000D01*
X133070000Y-52050000D01*
X133050000Y-52050000D01*
X133050000Y-52070000D01*
X132450000Y-52070000D01*
X132450000Y-52050000D01*
X132430000Y-52050000D01*
X132430000Y-51450000D01*
X132450000Y-51450000D01*
X132450000Y-51430000D01*
X133050000Y-51430000D01*
X133050000Y-51450000D01*
%TA.AperFunction,Conductor*%
D20*
G36*
X133050000Y-51450000D02*
G01*
X133070000Y-51450000D01*
X133070000Y-52050000D01*
X133050000Y-52050000D01*
X133050000Y-52070000D01*
X132450000Y-52070000D01*
X132450000Y-52050000D01*
X132430000Y-52050000D01*
X132430000Y-51450000D01*
X132450000Y-51450000D01*
X132450000Y-51430000D01*
X133050000Y-51430000D01*
X133050000Y-51450000D01*
G37*
%TD.AperFunction*%
%TD*%
M02*
