M48
; DRILL file {KiCad (5.1.9)-1} date 07/10/21 22:32:39
; FORMAT={-:-/ absolute / metric / decimal}
; #@! TF.CreationDate,2021-07-10T22:32:39+01:00
; #@! TF.GenerationSoftware,Kicad,Pcbnew,(5.1.9)-1
; #@! TF.FileFunction,Plated,1,2,PTH
FMAT,2
METRIC
T1C0.200
T2C0.300
%
G90
G05
T1
X131.0Y-68.0
X132.25Y-67.75
X133.075Y-67.75
X133.8Y-67.75
X134.5Y-68.0
T2
X126.0Y-46.0
X126.0Y-47.25
X126.0Y-65.75
X127.5Y-50.7
X128.25Y-66.25
X128.4Y-68.2
X128.5Y-51.5
X130.8Y-57.8
X130.8Y-59.8
X130.8Y-62.2
X131.25Y-52.5
X131.8Y-55.6
X131.8Y-62.2
X132.0Y-63.0
X133.3Y-63.1
X134.0Y-55.75
X134.75Y-62.25
X135.75Y-62.25
X136.56Y-62.19
X137.408Y-62.158
X137.75Y-56.0
X137.75Y-58.75
X138.0Y-50.25
X139.0Y-45.75
X139.5Y-65.5
T0
M30
